<?xml version="1.0" encoding="utf-8"?>
<!-- Generator: Adobe Illustrator 25.2.1, SVG Export Plug-In . SVG Version: 6.00 Build 0)  -->
<svg version="1.1" id="Layer_1" xmlns="http://www.w3.org/2000/svg" xmlns:xlink="http://www.w3.org/1999/xlink" x="0px" y="0px"
	 width="500px" height="339.9px" viewBox="0 0 500 339.9" style="enable-background:new 0 0 500 339.9;" xml:space="preserve">
<style type="text/css">
	.st0{fill-rule:evenodd;clip-rule:evenodd;}
</style>
<g>
	<path class="st0" d="M463.7,110.3c-0.2-0.9-2-1-2.8-0.5c0-0.6-1.3-1.5-3.2,0.5c0-0.6-1.3-0.7-1.8,0.1c-0.1-0.6-1.3-0.3-1.8,0.6
		c-0.1-0.5-1-0.3-1.4,0.7c-0.1-0.4-0.8-0.3-1.3,0.7c-0.2-0.3-0.6-0.2-0.9,0.1c-2.6-4-4.8-8.4-5.9-10.3c-0.8-1.4-1.7,1.1-1.5,1.8
		c-0.9,0.2-1,2-0.5,2.8c-0.6,0-1.5,1.3,0.4,3.2c-0.6-0.1-0.7,1.3,0.1,1.8c-0.6,0.1-0.3,1.3,0.5,1.8c-0.5,0.1-0.3,1,0.7,1.5
		c-0.4,0.1-0.3,0.8,0.7,1.3c-0.5,0.3,0.3,1.4,0.9,1.5c-2,1.1-3.2,1.5-5.8,1.8c-0.6,0.1-0.9,0.4-0.3,0.8c-0.8,0.1-0.8,0.5-0.6,0.8
		c-0.9,0.2-1.4,1.2-0.3,1.4c-1.1,2,4.4-0.4,5.9-0.5c2.2-0.4,4.1-0.1,6-0.1c2.8,0,5.5-1.4,7.6-1.4c0.8,0.1,1.6,0.1,2.8,0.7
		c0.2-0.4,0.1-1-1.3-1.9c-0.5-2.3-3.5-2-4.3-1.8c3.9-2.5,8.1-4.6,9.9-5.7C466.9,111,464.4,110.1,463.7,110.3L463.7,110.3z
		 M363.3,38.6c-0.2-0.8-1.6-0.9-2.3-0.5c0-0.5-1.1-1.3-2.7,0.3c0-0.5-1.1-0.6-1.5,0.1c-0.1-0.5-1.1-0.3-1.5,0.4
		c-0.1-0.4-0.8-0.3-1.2,0.5c-0.1-0.3-0.7-0.3-1.1,0.5c-0.2-0.3-0.5-0.2-0.7,0.1c-1.3-2-2.4-4.2-3.3-5.9c0.8-1.3,1.5-2.6,1.9-3.9
		c-0.9-3-0.5-4.7,0.1-6.7c0.8,0.1,0.9,1,0.8,1.7c0,0,1.1-0.1,1.2-1.2c0.6-0.9,1.2-1.8,0.7-2.6C353,20.7,351,20,351,20
		c-0.6-1.8-0.5-3.6,0.5-6.6c-1-3.2-3.5-6.8-5-8.4c-0.6,0.3-1.1,0.7-0.9,1.4c-0.5,0.7-0.4,1.6-0.1,2.4c-0.4,0.7,0,1.5,0.4,1.9
		c-0.4,0.4-0.3,1.5,0.3,1.8c-0.4,0.7-0.1,1.5,0.4,2.1c-0.7,0.2-0.4,4.7-0.5,5.2c-0.7,0-1.1,0-2.5,0.1c-0.9,0-2.1-0.4-3.4-0.9
		c-0.7-0.3-1.1,0.7-0.9,1c-0.3,0-0.6,0.5-0.4,0.8c-0.4,0-0.5,0.8-0.3,0.8c-0.4,0.1-0.4,0.6-0.2,0.8c-0.2,0.2-0.2,0.5,0.1,0.9
		c-0.2,0.3,0,0.9,0.8,0.7c1.6-0.4,3-0.9,4.5-0.4c0.8,0.2,1.3,0.7,2.2,0.9c-0.3,1.5-0.5,5-0.1,5.6c-1,0.8-0.7,1.8-0.6,1.9
		c-0.6,0.5-0.7,1.5-0.5,2c-0.4,0.4-0.7,1.4-0.6,2c-0.5,0.6-0.5,1.9,0,2.3c-0.1,0.3,0.1,1,0.6,1.3c0.3-0.2,0.5-0.5,0.8-0.8
		c0.1,0.2,0.2,0.5,0.5,0.6c-0.5,0.1-0.3,1.1,0.4,1.5c-0.4,0.1-0.3,0.8,0.5,1.2c-0.3,0.1-0.3,0.7,0.5,1.1c-0.4,0.3,0.2,1.2,0.7,1.3
		c-1.7,0.9-2.7,1.2-4.9,1.4c-0.5,0-0.7,0.3-0.3,0.7c-0.7,0.1-0.7,0.4-0.5,0.7c-0.7,0.1-1.2,1-0.3,1.2c-0.9,1.6,3.7-0.3,5-0.4
		c1.9-0.3,3.5,0,5.1,0c2.4,0.1,4.7-1.1,6.4-1c0.7,0.1,1.4,0.1,2.3,0.6c0.2-0.3,0.1-0.9-1.1-1.6c-0.4-2-2.9-1.7-3.6-1.6
		c3.3-2.1,6.9-3.7,8.4-4.6C366,39.2,363.9,38.4,363.3,38.6L363.3,38.6z M418.6,111.5c2.3,1.3,6.3,4.1,8.2,6.9
		c-0.9,3.2-0.8,4.9,0.3,6.5c0,0,2.9,0.2,3.9,0.9c0.9,0.7,0.2,1.6-0.5,2.6c0,1.1-1.4,1.5-1.5,1.5c0-0.7-0.3-1.5-1.4-1.4
		c-0.5,2-0.7,3.7,1,6.4c-1.1,3.2-3.9,7.3-6,9.5l0,0c1.1,0,6.3,1.6,4.9,3c1.1,0.9,1.1,1.5,1,2.1c-2.2-1.1-3.9-1.4-4.8-1.5
		c0.2,3.4,2.1,6.8,0.3,7.3c-3.8,1-8.3,2.2-10.8,2.1c-0.3-0.5,0.9-1.2,1.2-1.3c-0.2-0.6,0.4-1.8,1.4-1.9c0.3-0.5,0.3-1.3,1.7-1.1
		c0.1-0.3,0.8-0.8,1.6-1c-0.7-1.1-0.8-2.3-0.8-3.1c-1-0.2-2.3-0.5-3.3-0.7c-1.9-0.4-3.4,0.2-5.5,0.6c-1,0.2-1.3-0.4-1-0.7
		c-0.3-0.3-0.2-0.5,0.1-0.7c-0.3-0.2-0.6-0.8-0.1-0.9c-0.3,0-0.3-0.8,0.2-0.8c-0.3-0.3-0.1-0.8,0.3-0.8c-0.3-0.2,0.3-1.2,1.2-1
		c1.6,0.4,3.6,0.9,4.7,0.8c1.8-0.1,1.9-0.2,2.8-0.3c0-0.2-0.2-1.5-0.1-2.4c-0.4-0.3-0.6-0.8-0.5-1.3c-0.7,0.1-1.2-0.7-1-1.3
		c-0.6-0.2-1.1-0.3-1.1-1c-0.8-0.6-0.9-0.7-0.6-1.5c-0.7-0.4-1.2-1.2-0.8-2c1.9,0.7,5.9,1.2,7.6,2.6c-0.1-0.4-0.1-1,0.7-1.7
		c-0.6-0.5-0.9-3.9-0.8-5.4c-1.2,0-1.9-0.3-3.1-0.4c-2.2-0.1-3.9,0.7-6,1.4c-1,0.3-1.5-0.2-1.2-0.5c-0.4-0.3-0.5-0.6-0.2-0.8
		c-0.4-0.2-0.4-0.7,0.1-0.8c-0.3,0-0.4-0.8,0.2-0.9c-0.4-0.3,0-0.8,0.4-0.9c-0.4-0.2,0-1.2,1.1-1.1c1.8,0.2,3.5,0.3,4.7,0.1
		c1.9-0.4,2.4-0.5,3.4-0.7c0-0.5-1.1-4.8-0.2-5.1c-0.8-0.4-1.2-1.1-0.8-1.9c-0.8-0.1-1-1.1-0.6-1.6c-0.6-0.3-1.3-1-0.9-1.7
		c-0.7-0.7-0.9-1.6-0.3-2.4C417.2,112.4,417.8,111.9,418.6,111.5L418.6,111.5z M334.3,118.4c-0.2-0.9-1.8-1-2.6-0.5
		c0-0.6-1.2-1.4-3,0.3c0.1-0.6-1.2-0.7-1.6,0.1c-0.1-0.5-1.2-0.3-1.7,0.5c-0.1-0.5-0.9-0.3-1.4,0.6c-0.1-0.4-0.8-0.3-1.2,0.6
		c-0.2-0.3-0.6-0.2-0.8,0.1c-1-1.6-1.9-3.3-2.7-4.8c2.3-0.3,4.8-0.8,7.1-1.3c2-0.4,0.1-4.3,0.1-8.1c1,0.2,2.9,0.6,5.2,2
		c0.2-0.7,0.2-1.4-0.9-2.4c1.7-1.5-4-3.5-5.2-3.6c-0.4-1.4-0.5-4.8-0.4-6.3c0.2-2.7-6.4-3.8-9-4.9c-0.5,0.8,0,1.8,0.7,2.2
		c-0.4,0.9-0.2,1,0.6,1.7c0,0.8,0.5,1,1.2,1.2c-0.3,0.6,0.2,1.5,1,1.5c-0.1,0.6,0.1,1.1,0.4,1.5c-0.2,1,0,2.5,0,2.7
		c-1,0-1.1,0.1-3.1,0.1c-1.3,0-3.4-0.6-5.2-1.1c-1-0.3-1.7,0.7-1.4,1c-0.4,0-0.6,0.5-0.4,0.9c-0.6,0-0.6,0.9-0.3,0.9
		c-0.5,0.1-0.3,0.8,0.1,1c-0.3,0.2-0.5,0.4-0.2,0.8c-0.4,0.3-0.1,1,1,0.8c2.3-0.4,4-0.8,6.2-0.3c1.1,0.3,2.5,0.7,3.6,1
		c-0.1,0.9,0,2.2,0.7,3.5c-0.8,0.2-1.6,0.7-1.8,1c-1.1-0.2-1.4,0.3-1.7,0.7c-0.3-0.6-0.6-1.1-0.8-1.5c-0.7-1.3-1.7,1-1.5,1.7
		c-0.9,0.2-1,1.8-0.6,2.6c-0.6,0-1.5,1.2,0.3,3c-0.6-0.1-0.7,1.2,0.1,1.6c-0.5,0.1-0.3,1.2,0.5,1.7c-0.5,0.1-0.3,0.9,0.6,1.4
		c-0.4,0.1-0.3,0.8,0.6,1.3c-0.4,0.3,0.3,1.3,0.8,1.4c-1.9,1-3.1,1.3-5.5,1.5c-0.6,0-0.8,0.4-0.3,0.8c-0.7,0.1-0.8,0.5-0.6,0.7
		c-0.8,0.1-1.3,1.1-0.3,1.3c-1,1.8,4.1-0.2,5.5-0.3c2.1-0.3,3.8,0,5.6,0.1c2.6,0.1,5.2-1.1,7.2-1c0.8,0.1,1.5,0.2,2.6,0.7
		c0.2-0.3,0.2-1-1.2-1.8c-0.4-2.2-3.2-2-3.9-1.9c3.7-2.3,7.7-4.1,9.4-5C337.3,119.2,334.9,118.2,334.3,118.4L334.3,118.4z M245,69.5
		c-0.5-0.7-0.9-1.4-1.3-2l0.5-0.5l-0.5-1l-0.6,0.6c-1.3-2.2-2.3-4.1-2.9-5.1c-0.7-1.2-1.5,1-1.3,1.6c-0.8,0.2-0.8,1.7-0.4,2.4
		c-0.5,0-1.3,1.2,0.4,2.8c-0.6,0-0.6,1.2,0.1,1.5c-0.3,0.1-0.3,0.6-0.1,1l-0.3,0.3l-1.3,5.5c-0.3,0-0.5,0.1-0.9,0.1
		c-0.5,0.1-0.7,0.4-0.3,0.7c-0.7,0.1-0.7,0.5-0.5,0.7c-0.8,0.2-1.2,1.1-0.3,1.3c-0.4,0.7,0.2,0.8,1.1,0.6l-1.8,7.3
		c-1.7,0.8-3.8,2.1-5.5,3c-1.5-5-2.5-7.1-3.4-11.9c1.1-4.7,2.6-10.2,3.7-14.9c-0.4,0-0.8,0.1-1.3,0.1c-1.1,3.6-1.7,6.6-2.8,10.1
		c-0.7-1.5-1.9-4.3-2.6-5.8c-0.4,0-0.8,0-1.3,0c1,2.6,2,5.1,3,7.7c-0.3,1.1-0.5,2.1-0.8,3.2c1.4,4.5,2.7,8.8,3.6,13.4
		c-1.1,1.9-2.8,3.6-3.9,5.5c-2.4-4-2.6-3.8-4.9-7.9c-0.3-1.5-1.4-6.6-1.8-7.9c-0.3,0.2-0.7,0.3-1,0.5c0.3,1.4,1.7,6.8,1.8,8
		c2.3,4.3,1.8,2.3,5.2,9.8c-0.4,1.8-0.9,6-0.9,7.7c0.1,1.9,0.7,6.5,0.7,7.7c-1.4,1.6-2.3,2.3-3.9,3.8c-1.1,0.7-2.7,1.5-3.7,2.2
		c-0.1-2,0.5-2.5,0.4-4.6c0.6-1.1,1.5-2.8,2.1-4c0-1.5-0.4-3.1-0.4-4.6c0.4-2.5,0.6-4.3,0.9-6.8c-0.3,0.3-0.5,0.2-0.8,0.4
		c-0.3,1.4-0.8,4.8-1,6.3c0.1,1.4,0.1,2.9,0.1,4.2c-0.6,1.1-1.1,2-1.8,3.1c-0.5-0.7-1-1.7-1.4-2.4c-0.2-0.1-0.5,0.1-0.8,0
		c0.5,1.2,1,2.3,1.5,3.6c-0.2,2.3-0.4,4.3-0.6,6.6c-1.8,2.1-4.2,5-6,7.1c-3.9,2-7,2.7-11.1,4.2c0-1.9-0.4-5-0.4-6.8
		c1.2-2.4,2.2-4.4,3.1-6.8c0.3-2.2,0.7-5.1,1.6-7.6c0.9-0.5,1.9-1.7,2.8-2.2c2-0.2,5,0,7,0.1c0.1-0.2,0.2-0.6,0.2-0.8
		c-0.3,0-3.5-0.4-4.2-0.5c0.5-0.8,2.4-3.5,2.8-4.2c-0.1-0.2-0.6-0.3-0.7-0.4c-0.7,0.9-2.5,3.7-3.3,4.6c-0.7-0.1-1.6,0-2.2-0.1
		c-1,0.6-1.5,1-2.4,1.6c0.5-1.8,1.4-5,2.4-6.5c-0.2-0.2-0.5-0.4-0.9-0.7c-0.8,1.7-2.4,4.9-2.7,6.8c-0.7,2.9-1.9,7.2-2.4,9.9
		c-1.4,2.6-1.8,3.8-2.9,5.5c-0.8-0.5-2.7-0.9-3.5-1.3c0.4-0.4,0.7-0.8,1.1-1.1c-0.4-0.1-0.9-0.3-1.3-0.4c-0.3,0.1-0.5,0.5-0.9,0.8
		c-0.9-0.9-1.6-1.6-2.2-2.4c-0.5,0.2-0.6,0.4-0.8,0.6c0.3,0.6,1,1.1,2.3,2.4c-1.4,1.2-2.3,2-3.7,3.2c-0.7,0.6-1.3,1.2-2,1.8
		c-2.1-0.6-4.4-1.1-6.6-1.7c0.5-1,1-2,1.5-3c-0.7,0-0.4,0-1.1,0c-0.3,0.9-0.9,1.7-1.2,2.6c-2.1-0.6-4.7-0.8-6.8-1.6
		c1.1-2.5,1.7-4,3.2-6.5c1.9-1.4,5.9-2.9,8.2-3.8c-0.5-0.2-0.9-0.3-1.4-0.5c-2.2,0.7-4.3,1.5-6.5,2.6c0.3-0.7,0.7-3.1,1.5-4.7
		c-0.4,0-0.8,0.1-1.2,0.1c-0.7,1.4-1.3,3.2-2.1,4.7c-1.6,3.1-3.2,6.2-4.7,8.8c-2.4,2.3-3.8,3.8-6.2,6.1c-1.7,1.2-3.4,2.5-5.1,3.7
		c-1.8-0.1-3.6-0.3-5.3-0.4c-1.5-0.3-5.3-1-7.4-1.9c2-1,3.9-2.1,6-3c2.5-0.7,4.4-1.2,6.9-1.8c1.2,0,3.2-0.2,4.4-0.1
		c0.4-0.4,0.6-0.8,1-1.3c-1.3-0.2-3.1-0.4-4.4-0.5c-1.8,0.3-5.4,1.3-7.2,1.6c-2.8,1-2.5,1-5.3,2c0.5-1.8,0.9-3.9,1.9-5.8
		c-0.3-0.3-0.4-0.4-0.8-0.6c-0.7,1.7-1.9,5.1-3.5,7.1c-0.5,0.6-0.9,1.2-1.6,1.4c-2-0.2-4.5-0.7-6.9-0.6c-1.7,0.5-3.2,1.2-5.1,1.6
		c0.3-2,0.3-2.9,0.4-4.9c3.8-3.7,11.7-7,13.9-7.9c2.3-1.1,4.6-2.5,6.9-3.7c3.5-2,6.5-3.9,10-5.9c3.8-0.5,8.2-0.6,11.7-0.4
		c2.4-0.3,4.1-0.5,6.2-0.8c0.7-0.4,1.4-1.1,2.2-1.6c-2.5,0.3-6.5,0.8-7.8,0.9c-5.8,0.3-7.4-0.4-11.6-0.4c0.7-2,2.9-6.3,3.5-7.5
		c-0.4-0.4-0.8-0.6-1.2-0.9c-1.3,2.6-2.6,5.3-3.8,7.9c-3.8,2.4-9.7,6.6-15.5,8.3c0.4-1.7,1.7-4.2,2.3-6c0-1.6,1.1-6.5,1.1-8.1
		c2.5-4.4,9-4.9,13.4-6c1.1-0.1,2.4-0.3,3.4-0.5c0.3-0.5,0.4-0.9,0.7-1.4c-3.4,0.6-6.8,1.2-10.2,1.8c2.3-1.4,4.6-2.9,6.9-4.3
		c3.4-0.6,6.9-1,10.3-1.5c1.3-0.7,2.9-1.5,4.2-2.2c2.6-0.6,4.9-1.2,7.5-1.8c0.1-0.4,0.2-0.6,0.2-1c-3.1,0.7-6.2,1.4-9.4,2.1
		c-0.7,0.5-2.1,1.3-2.7,1.7c-2.3,0.2-3.2,0.3-5.2,0.6c3.4-1.7,7.6-4,11-5.7c3-3.4,6.3-8.5,9.5-12.5c-0.4,0.1-1.1,0.2-1.5,0.3
		c-2.9,3.7-5.9,7.5-8.9,11.2c-6.3,2.9-12.8,5.7-19.4,7.9c-2.1,1.2-5.4,3.2-7.5,4.5c0.1-1.1,0-1.7,0.2-2.9c3.3-3.3,3.9-4.3,7.5-7.6
		c1.6-1.1,5.8-4.7,7.3-5.8c1.9-0.8,5-2.2,6.9-3.1c1.5-2.1,3.5-4.2,5.3-6.1c-0.3-0.1-0.9-0.1-1.2-0.2c-1.3,1.4-3.5,3.6-4.9,4.9
		c-2.6,1-3.3,1.4-5.9,2.5c0.7-1.4,2.7-5.9,3.7-6.8c-0.2-0.4-0.4-0.8-0.6-1c-2.2,3.3-4,6.3-6.2,9.7c-2,1.7-4.1,3.2-6,4.9
		c-2.4,2.5-4.9,5.2-7.3,7.7c-0.2-2-0.6-3.8-0.8-5.8c-0.3,0.1-0.6,0.2-0.9,0.3c0.2,2.9,0,7.4,0.2,10.4c-1.1,1.9-1.6,2.5-2.8,4.1
		c-0.1,1.2-0.6,4.9-0.7,6.1c-1,4.7-2.7,7.1-4.2,10.6c-4.7,2.3-6.3,3.6-11.4,6.1c-1.6-2.7,0.5-5.2,1.3-7c4.1-3.4,8.9-6.1,13.1-9.5
		c-0.2-0.5-0.4-1.1-0.6-1.6c-3,2.1-7.7,5-10.8,7.1c3.5-6.3,5-12,6-19c3.2-3.6,5.6-7.9,8.3-11.1c2.5-1.1,5.2-1.9,8-3
		c1.8-0.4,4-0.8,5.8-1.1c0.6-0.5,0.9-1.1,1.5-1.5c-2.7,0.3-4.9,0.7-7.5,1.3c-2.6,0.6-4.9,1.7-7.6,2.4c1.3-1.7,2.5-3.5,4.2-5.4
		c3.7-1.3,6.7-2.2,10.1-3.8c0.4-0.5,0.8-1.2,1.1-1.8c-2.9,0.9-6.3,2.1-9.2,3c1-1.6,2.2-3.4,3.5-5.3c2.3-2,3.8-4,5.9-6.2
		c1.6-1.4,5.4-3.8,7-5.2c-0.1-0.3-0.2-0.5-0.4-0.9c-2.8,2.1-4.9,3.1-7.7,5.2c-1.4,1.3-3.4,3.6-4.7,4.9c0.1-0.2,0.6-2.7,0.7-3
		c-0.3,0-0.6,0-0.9-0.1c-0.2,0.6-0.8,3.3-1.1,3.6c-0.4,0.3-0.8,0.6-1.4,1.1c0.2-1.5,1.5-10.1,1.6-11.6c-0.4-0.2-1-0.2-1.4-0.2
		c-0.4,3.8-1.1,8.4-1.9,11.7c-2.1,3.4-3.7,4.6-6.4,7.6c-2.9,1.2-6.7,2.3-9.7,3.1c1.1-3.9,2.5-11.2,4.1-15.4c1.6-2.9,2.2-4.6,3.6-7.5
		c2.9-2.3,7.5-6.2,10.3-8.2c-0.1-0.6-0.1-0.7-0.2-1.1c-3.5,2.3-7.2,5-10.6,7.4c-0.9,1.4-1.4,2.3-2.2,3.7c-0.6-2.8-1.2-8.1-1.4-10.1
		c-0.4-0.1-0.7,0-1.1,0c0.5,3.5,0.9,7.9,1.4,11.5c-1.7,3.6-2.3,5.9-3.2,8.6c-2.7-2.7-4-3.8-6.7-6.5c0,0.7,0,0.7-0.2,1.5
		c0.6,0.9,5.5,5.8,6.1,6.8c-0.8,2.8-1.3,5.7-2.1,8.5c-2.4-2.4-4.8-4.8-7.2-7.2c0.8-4.9,1.3-9.8,2.1-14.7c-0.2-2.2-0.4-4.2-0.7-6.3
		c3.1-4.5,4.3-6.7,7.4-11.2c-0.1-0.5-0.3-1.1-0.4-1.6c-2.8,3.7-3.7,5.3-6.5,9c-0.4-4.6-0.6-5.7-1-10.3c-0.3,0-0.6,0.1-0.9,0.1
		c0.2,4.8,0.3,6.5,0.4,11.3c-0.2,1.4-0.6,2.2-0.9,3.6c0.3,1.6,0.4,3,0.7,4.6c-0.5,3.6-1.5,9.5-2.1,13.6c-0.8-0.9-1.9-2.4-2.7-3.3
		c0.5-3.6,1.1-7.4,1.5-11.1c-0.4-0.4-0.7-0.8-1.1-1.3c-0.4,3-1.3,7.4-2.1,11.4c-3.6-1.6-6-3.1-9.5-4.7c0.6,0.9,1,1.7,1.4,2.3
		c1.6,0.3,6,3.2,7.8,3.9c2,2.1,3.2,5,4.6,6.5c2.6,3,6,5.1,8.2,8.5c-1.4,3.9-3.1,7-5.1,10.8c-1.1-2.1-2.3-4-3.4-6.1
		c-1.2-0.3-2.6-0.9-3.9-1.2c-1.1-3.8-2.8-7.1-4.3-10.7c-2.9-1.3-5.7-2.8-8.6-4.1c0,0.5-0.1,0.7-0.1,1.4c2.3,1.4,5.1,2.8,7.4,4.1
		c1.5,2.8,2.4,5.6,3,8.6c-1.1-0.2-2.6-1.2-3.4-1.2c-4.5-4.7-8.8-8.8-12.4-14.3c0.6-3.6,0.5-8.1,0.9-10.9c-0.4-0.3-0.6-0.5-1.1-0.8
		c-0.1,3-0.5,7.1-0.7,10c-2.2-3.3-4.7-8.6-6.9-11.9c-0.5,0.1-0.8,0.1-1.3,0.2c3.2,5.7,5.5,9,7.3,12.8c-1.1,0-4.3,1.5-5.5,1.5
		c-4.1-3-8.7-6.4-11.9-8.6c-0.7,0.2-0.9,0.4-1.7,0.7c3.8,2.9,9.1,6.7,13.1,9.8c1.8,2.6,4.1,4.5,5.9,7.1c2.8,0.7,4.9,0.7,8.2,1.5
		c1.8,1.9,3.5,3.9,5.4,5.7c1.6,0.2,3.7,1.5,4.7,1.6c1.3,6.1,4.1,11.3,3.5,16.7c-2.4-2.6-5.2-5-7.6-7.6c-0.2,0.4-0.5,0.8-0.7,1.2
		c2.7,3.1,5.4,6.2,8.1,9.3c0.2,2.6-2.1,6.7-3.2,9.1c-2.9-3.8-4.1-8.6-7-12.4c-0.2-1.7-0.9-3.9-1-5.7c-0.4-0.9-1.5-3.2-1.9-4.2
		c1.5-1.8,3.3-3.4,5.3-5.2c-0.5-0.1-1.1-0.2-1.6-0.3c-1.4,1.5-3.2,2.9-4.5,4.2c-1.1-2.5-2.7-5.4-3.7-7.9c-0.4-0.1-0.5,0.1-0.9,0
		c1.2,3,2.6,5.8,3.8,8.9c-0.9,2.1-1.9,4-2.5,6.3c-0.7-0.2-1.7-0.6-2.4-0.8c-1.3-2.5-3.2-8.3-4.3-10.6c-0.4,0-0.7,0.1-1.1,0.1
		c1.5,3.8,3.1,7.8,4.7,11.7c0.8,0.4,1.7,0.8,2.5,1.1c-0.4,1.7-0.3,6.7-0.7,8.1c-1.3-1-4.3-4.4-5.9-6.1c-0.8-1.6-5.1-9-5.1-9
		c0.3-3.4,1.6-7.8,2.2-10.6c-0.5-0.4-0.9-0.6-1.4-1c-0.3,2.9-1.7,7.2-2.5,9.6c-4.6-7.5-5.6-16.3-7.6-24.7c-0.7,0.1-0.8,0.2-1.5,0.3
		c1,4.1,1.6,8.2,2.7,12.4c-1-0.9-3.6-3.6-4.6-4.5c-6.1-2.1-14-5.6-20.9-9.7c0.1,0.6,0.1,1,0.1,1.7c2.5,1.7,9.3,4.9,11.3,6.3
		c-2.6-0.1-7-0.5-9.8-0.7c0.1,0.4,0.1,0.9,0.2,1.2c5.7,0.7,11.5,1.3,17.8,3c1.7,1.4,3.1,3.7,4.3,5.6c2,3.4,3.3,6.7,5.2,10.1
		c2.3,4.4,5.4,8.8,5.4,8.8c-2.5-0.6-3.7-1-6.2-1.6C81,98.3,79.2,96.6,78,95c-4-5.2-6.9-9.9-10.1-15.6c-0.5,0.4-0.9,0.8-1.3,1.2
		c2.3,4.6,5.4,9.6,7.9,14.2c0,0-11.1-3-12.9-3.2c-1.2-0.4-8.1-2.6-9.3-3c-2-2.5-3.8-5.3-5.7-7.9c-0.5,0.1-1,0.1-1.4,0.2
		c1.8,2.8,3.8,6,5.5,8.8c2.6,1.1,7.7,3,10.3,4.1c4.1,0.9,6.5,1.4,9.9,2.4c-2.7,0.4-6.3,1.1-8.9,1.5c0.3,0.4,0.7,0.9,1,1.3
		c3.8-0.5,8.4-1.1,12.1-1.6c0.9,1,5.8,4.9,7.3,5.9c1.1,0.5,6.8,2.3,8.7,3.1c2.8,2,5.3,4.5,7.6,6.8c-5-0.8-13.5-2-17.7-2.8
		c0,0.4,0,1.3,0,1.4c0.9,0.3,6.5,1.5,7.4,1.9c-0.9,0.7-1.8,1.5-2.7,2.2c-2.8-0.2-5.5-0.7-8.3-0.9c-0.3,0.3-0.4,0.7-0.9,0.9
		c3.2,0.4,5.9,0.8,9.1,1.3c1.7-0.5,4-2,5.7-2.5c2.9,0.4,8,0.9,11.3,1.6c3.3,1.9,7.7,3.7,10.1,5.2c-1.4,1.8-3.3,4.4-4.7,6.2
		c-7.2-0.4-14.4-0.5-21.4-0.9c-3.4-1.2-6-2-9.4-3.2c-0.5,0.1-1.4,0.3-1.9,0.3c3,1.3,5.6,2.4,8.4,3.8c-0.9,0.2-3.6,0.9-5.7,0.9
		c-2.7-0.6-7.1-1.7-9.9-1.9c-2.9,0-4.3,0.2-6.3,0.5c-1.3-4.6-4-13.6-4.1-14.4c-0.1-0.7-2.6-7.4-3-8.7c-2.2-3.1-4.6-6.5-6.8-9.6
		c-0.4,0.3-0.9,0.5-1.2,0.8c2.5,3.5,4.4,6.1,7,9.6c1.6,5.1,2.6,8.7,4.2,13.7c0.2,2,1.7,6.5,1.9,8.6c-1.3-0.8-2.7-1.6-4-2.4
		c-0.1-0.1-0.2-0.1-0.3-0.2c-1.3-0.9-1.8-1.3-3.1-2.2c-0.8-2.2-1.7-5-2.6-7.2c-2.9-3.9-6.2-7.7-9.1-11.7c-4.4-2-9.1-4.1-13.5-6.2
		c0,0.6,0,1.1,0,1.5c0,0,11,5.4,12,5.8c2.3,1,5.4,7.7,7.6,10c1.3,2.5,2,4.3,2.7,6.5c-4.4-1.5-8.5-3.6-12.9-5.2c-2.4-3.1-4.7-5.8-7-9
		c-1.8-2.8-3.4-6.8-4.3-9.3c-2.1-3.9-4.8-7.8-6.4-10.6c-0.4,0.1-1.2,0-1.7,0.1c1.7,2.7,4.5,7.7,6.2,10.4c1.5,2.7,2.1,6,3.5,9.3
		c1.3,2.6,3.7,4.1,5,6.7c-2.1-1-3.3-1.6-5.6-2.9c-1.3-0.8-2.6-1.6-4-2.5c0.1-1.4,0.1-2.8,0.2-4.2c-2.6-3.8-5.2-7.6-7.7-11.4
		c-0.3,0.4-0.3,0.9-0.3,1.2c1.4,2.8,4.9,7.7,6.1,10.1c0,2.1,0.1,3-0.2,4.6c-2.6,0.2-5.9,0.1-9-0.3c-1.6-1.2-3.4-2.9-4.8-4.1
		c-0.2,0.3-0.6,0.9-0.9,1.5c1.3,1.2,3.5,3.2,4.7,4c4.4,1.1,6.7,0.9,11.2,1.3c3,1.5,9.7,4.9,12.7,6.5c-2.3,0.4-7.3,1-9.2,1.7
		c-2.6,1.7-3.9,2.7-6.7,3.8c-4.1,0.2-8,0.1-12.4,0.2c0.3,0.4,0.7,1,1.1,1.3c0.8-0.1,7.8-0.1,8.6-0.2c-2.6,0.9-7.9,1.8-10.5,2.4
		c0.2,0.5,0.5,0.7,0.7,1.2c0.6-0.2,10.2-2.4,11.5-2.6c1.4-0.2,5.2-2.1,5.2-2.1c1.3-0.8,2.6-1.5,3.9-2.3c2.7-0.6,8-0.9,10.9-1.2
		c4.9,1.6,7.9,3,12.8,4.6c0.5,3.5,0.5,6,1.4,9.4c-3.4-1.1-4.2-1.8-7.6-3c-3.6-0.6-7.6-1.6-13-2.8c-1,0.3-1.2,0.9-2.2,1.4
		c5.3,1,10.4,2.4,15.7,3.5c1.9,1,5,2.6,6.9,3.6c1.8,3.1,2.5,4.9,3.6,8.3c-4.3,0.6-8.5-0.5-12.8-0.4c-0.8,1-1.9,2.9-2.6,3.9
		c-2.8,0.8-6,1.2-8.8,2c-0.4,1-0.5,1.4-0.9,2c4.4-0.6,7.5-1.6,11.6-2.8c0.4-0.5,1.4-2.1,2.1-2.8c2.4-0.2,6,0.7,11.9,1.2
		c1.8,1.8,2.2,3.4,4,4.6c3.1,1.7,8.1,4,14.1,5.5c-6.9,1-11.1,2-18,3.1c-2.5,0.7-5.9,2-8.4,2.7c-2.5-0.1-6.2,0.2-8.6-0.3
		c-3.8-0.8-6.7-1.1-10.6-1.5c-3.6,0.3-7.7,0.9-11.5,1.1c-0.4,0.6-0.5,1.1-0.8,1.6c4.4-0.4,8-1.1,12.2-1c3.3,0.1,6.9,1.3,10,1.7
		c2.3,0.1,5,0,7.3,0.1c0.3,0.8,0.5,1.1,0.8,1.9c-1.7,0.4-3.2,0.9-4.9,1.3c-4.4,1-8.9,1.6-13.2,2.6c0.6,0.4,1.6,0.6,2.3,1
		c2.4-0.3,7.5-1,11.3-1.7c1.4-0.3,2.4-0.8,3.3-0.9c1,2.5,4.5,6.5,5.5,9c-3.6-0.3-8.4-0.3-12.3-1c-3.5-0.6-7.4-1.8-10.6-2
		c-1.6-0.7-4.6-3-6.2-4.1c-0.9,0-2.3,0.2-2.9,0.2c2.3,1.4,4.6,3.5,6.9,5c3.8,0.9,7.7,2.5,11.6,3.4c3.7,0.8,7.2,0.4,10.8,1.2
		c2.2,0.9,6.4,2.2,8.5,3.1c-1.6,0.2-6.1-0.3-7.6-0.1c-1,0.1-4.4,0.8-6,1.3c0,0.6,0.1,1.2,0.1,1.8c1.4-0.7,4.6-1.2,5.9-1.4
		c4.1,0.6,6.1,0.8,10.2,1.4c1.2,0.9,2.8,2.4,4,3.3c-5,0-10,0.2-15.1,0.4c1.4,0.6,1.7,1,2.6,1.4c2.3,0,11.6-0.6,14-0.6
		c1.1,0.8,2.2,1.7,3.2,2.5c3.1,1.2,6.3,2.4,9.4,3.5c0,0,0,0,0,0c-3.8,1.7-9.6,4.6-13.4,6.3c-2.1-1.2-6.2-4.2-8.5-4.5
		c-4.5-2.9-6.7-4.7-11.3-7.6c-1.3-1-4.5-1.3-5.8-2.2c-2.1-1.5-3.8-4.3-6-5.9c-2.6-1.9-6.5-3.7-9.2-5.2c-1.3-0.7-4.9-2.2-6.2-3.1
		c-3-0.1-4.2,0.1-6.4-0.1c-0.4,0.3-0.6,0.6-0.9,1.1c2,0.3,4.8,0.4,6.8,0.7c1.9,1,2.9,1.5,4.8,2.8c2.1,1.1,3.3,2.1,5.5,3
		c-3.3,1.1-7.7,1.8-11.1,2.9c-0.4,0.5-0.6,1.2-0.7,1.6c3.4-0.7,8.9-2.1,12.3-2.7c2.2,1.3,2.1,1.6,4.4,2.9c1.1,0.9,2.4,3.6,3.5,4.6
		c3.5,1.2,8.8,2.8,11.7,5c-1.8-0.3-7.9-2.1-9.4-1.9c-7.4-0.3-11.1,0.1-18.5-0.2c0.1,0.4,0.2,1.3,0.2,1.4c1,0.2,6.6,0.5,7.6,0.7
		c-0.8,0.8-1.6,1.8-2.4,2.6c-2.8,0.2-5.5,0.2-8.3,0.4c-0.3,0.4-0.3,0.7-0.8,1c3.2-0.1,6,0,9.2-0.1c1.6-0.7,3.6-2.6,5.2-3.3
		c4.1-0.1,6.1-0.5,10.1,0.2c2.4,0.4,6.1,2.6,8.5,3.1c-2.5,0.7-5.1,1.2-7.7,1.9c-2.4,0.8-4.8,1.8-7.3,2.6c-3.6,0.3-4.8,0.3-8.4,0.6
		c-1.8,0.3-5.8,0.6-7.6,0.9c0.6,0.6,1,1.2,1.3,1.6c2.6-0.1,5.7-0.9,8.3-1c2.1,0,5.3-0.3,7.4-0.3c3.7-1.1,7.4-2.3,11.1-3.3
		c0,0,7.7-1.4,9.8-0.9c0.7,0.2,3.1,0.7,4.6,1.8c-2.2,0.8-5.3,2-7.4,2.8c0.3,0.4,0.6,0.8,0.9,1.2c2.3-0.9,5.9-2,8.2-2.9
		c2.6,2,4.5,4,4.5,4c-2.5,0.7-6.2,1.8-8.7,2.5c-3.6-0.4-8-2-11.6-2.4c-2.4,0.2-3.6,0.1-6.2,0.3c0.1,0.5,0.2,0.9,0.3,1.4
		c1.7-0.1,4.1,0,5.8-0.1c2.7,0.7,5.5,1.5,7.9,2.5c-3.2,2-6.2,4-9.7,5.5c-3.3-0.5-8.8-1.4-12.2-1.9c-0.6-1.2-1.2-2.9-1.8-4.1
		c-1.5-0.5-3.1-1.1-4.6-1.6c-0.2,0.4-0.3,0.7-0.5,1c1.8,1.1,2.4,0.9,4.2,1.9c-0.1,0.7,1,2.3,0.9,3c-1.5-0.1-3.5,0-5-0.1
		c-3.6-0.8-6.8-1.6-10.4-2.4c-0.2,0.3-0.4,0.6-0.5,0.9c2.6,0.8,5.9,1.7,8.5,2.5c-2.2,1.5-4.2,2.7-6.4,3.9c0.8,0.2,0.9,0.3,1.8,0.3
		c1.5-0.4,4.4-2.6,6.3-3.3c1.9,0.2,4.3,0,6.2,0.2c3.9,0.3,6.7,1.4,10.5,1.7c-2.4,1-5.2,1.5-7.5,2.2c-3.3,1.4-6,3.1-9.2,4.3
		c-2.7,0.6-5.6-0.1-8.4-0.3c-1.4-0.6-2.7-1.7-4.2-2.4c-3.5-0.4-6.5-0.7-10-1.1c-0.4,0.4-0.8,0.7-1.2,1c3.3,0.5,6.5,1.1,9.8,1.6
		c0.9,0.6,1.6,1.4,2.5,2c-2.8,1.4-6.2,2.7-9,4.1c-0.3,0.7-0.4,1.1-0.6,1.7c3.8-1.6,6.9-3,10.7-4.6c2.8,0.4,5.2,1.1,7.1,1
		c-2.3,1.9-4.7,4.4-7.1,6.3c-3.6,2.8-7,5.1-10.5,7.9c0.2,0.7,0.3,1.1,0.5,1.9c3.9-2.7,8.4-5.2,12.1-8.4c2.7-2.3,4.7-5.4,7.6-6.6
		c1.6-0.7,8.5-4.4,8.5-4.4c-1.7,2.7-3.6,5.9-5.3,8.7c-3.3,2.4-6.9,4.4-10.2,6.8c0.3,0.4,0.9,0.7,1.2,1.1c0,0,6.8-5.4,9.4-6.7
		c2.9-3.6,6.1-9.2,6.9-10.2c3.4-1.7,7.6-2.6,11.1-4.1c4-1.8,7.3-4.2,11.4-5.9c-1.5,2.4-2,4.8-3.3,6.8c-1.3,2.1-3.2,3.8-4.7,6.3
		c-1.8,0.7-3.7,1.8-5.5,2.5c0.5,0.4,0.9,0.6,1.9,0.8c1.1,0.2,3.8-1.8,4.9-2c1.6-2.5,3.9-4.6,5.4-7.1c1.6-2.5,2.5-5.4,4.1-7.9
		c2.5-1.5,7.1-2.8,8.3-2.7c3.4,0.3,8,0.9,10.7,1.1c-4.1,5.9-7.2,13.3-10.8,19.5c-2.5,1.7-5.1,3.7-7.6,5.4c0.7-0.1,2,0.2,2.8,0.1
		c2.5-1.6,4.4-3.5,6.9-5.1c3.3-6.6,6.9-13.4,11.3-19.3c2.6-0.5,4.3-0.5,7-1c0,0,9.1-2.3,10.4-2.4c6.1-0.9,10.7-2,15.7-1.5
		c2.8,0.3,5.6,0.9,8.9,2.1c-4.6,2.5-10.4,5.4-15.6,6.9c1.9,1.3,4.6,2,7.2,1.9c7.8-3.7,15.7-7.6,24.6-6.2c0.6,2.7,1.6,5.9,1.2,8.1
		c-4.5,6.4-7.4,9.4-13.5,14.6c-6.1,3.8-14.4,8-20.3,11.1c-7.2,9.7-14.6,22.1-18.1,32c-3,5.8-5.2,12.3-7.2,19
		c-1.2,4.1-2.1,19.3-2.4,29.3c-0.1,3.7-2.3,6.1-3.1,8.2c4,2.3,27.4,2,29.7,0c-0.2-2.6-3.6-6.5-3.6-11c0.1-11.7,1-27.3,3.2-34
		c6.5-19.8,10.1-23.6,25.4-35.2c7.6-5.8,16.4-13.7,17.8-15.3c2.6-2.8,15.4-10.7,15.4-10.7c0-1.2-0.9-2.8-0.9-4
		c-3,0.9-6.5,2.8-9.6,2.2c3.2-5.6,9.4-10.5,14.9-15.3c2.1-2.2,16.8-7.2,20.9-8.5c2,0.5,14.9,6.4,17.7,7.9c2.2,2.7,6.3,14,8.5,16.7
		c0.4,1.9,1.1,5.9,1.2,6.6c1,6.2,2.1,8.2,3.8,14.3c1.3,1.5,3,3.2,4.7,4.7c0.1-0.2,0.6-1,0.7-1.1c-1.7-1.6-2.7-2.6-3.8-4.4
		c-1.8-6-1.8-5.5-3.2-11.5c-0.1-1.1-0.3-3.8-0.4-5.1c0.8,0.5,4,3.3,5.3,4.6c0.8,1.4,1.5,4.6,1.6,5.2c0.1,0.5-0.1,4.7-0.1,5.6
		c0.6,1,2,2.8,2.7,3.6c0.5,1.8,1.5,4.7,2,6.5c0,0.9,0,1.4-0.1,2.2c0.2,0.1,0.6,0.1,0.8,0.1c0.1-0.5,0.1-2.2,0.2-2.5
		c-0.5-2.3-1.1-4-1.7-6.2c2.4,0,4.8,0.2,7.2,0.4c1.8,1.1,2.2,1.1,4,2.2c0.1-0.2,0.4-0.6,0.4-0.8c-1.5-1.1-2.4-1.6-4.2-2.6
		c-2.7-0.3-5.1-0.1-7.8-0.3c-0.9-1.1-1.5-2.1-2.3-3.2c0.1-1.6,0.2-3.4,0.4-5c-0.2-1-0.1-1.2-0.3-2.2c2.2,1.3,4,2.4,6.2,3.8
		c3.1,1.7,5.1,2.4,8.5,3.3c0.9,0,3.9,0.3,4.9,0.3c0.1-0.3,0.1-0.6,0.1-0.7c-1.3-0.1-3.2-0.4-4.5-0.6c0.6-0.1,2.7-0.8,3.3-0.9
		c0.2-0.3,0.2-0.4,0.4-0.7c-1.4,0.2-3.5,0.7-4.9,0.9c-2.5-0.7-4.7-1.8-7.1-2.8c-2.6-1.7-4.7-3.1-7.3-4.8c-0.2-0.3-0.2-0.5-0.4-0.9
		c1.2,0.1,2,0.3,3.1,0.4c0.8,0.6,2.9,2.2,3.9,2.8c0.3,0,0.5-0.3,0.8-0.3c-0.9-0.7-3.1-2.3-3.8-3.2c0.2-0.5,0.5-0.9,0.7-1.4
		c0.4-0.4,1-0.4,1.4-0.8c-0.2-0.1-0.4-0.2-0.6-0.4c-0.3,0.2-0.9,0.5-1.2,0.8c-0.2,0.5-0.8,1.1-1.1,1.5c-1.6-0.3-2.6-0.7-4-0.8
		c-1.1-1.1-1.9-2-2.9-3.1c0.9-0.2,2.1,0,3.1-0.2c0-0.2-0.4-0.7-0.5-0.9c-1,0.1-2.1,0.1-3.1,0c-1.4-1-2-1.4-3.4-2.4
		c-1.6-3.2-4.4-8.7-5.5-12c0,0,7.5,8.2,9.5,9.7c2,1.5,11.8,7.7,11.8,7.7c3.3,2.1,6.6,4.1,10,6.2c1.8,1.2,3.5,2.5,5.3,3.7
		c1.4,1.1,2.8,2.2,4.3,3.4c0.7-0.6,1.4-1.2,2.2-1.8c-2-1.4-3.9-2.7-5.9-4.1c0.7-0.6,1.5-1,2.2-1.5c1.6-0.1,2.9,0,4.4-0.1
		c1.2,0.9,2.7,1.6,3.9,2.5c0.1-0.3,0-0.9,0-1.2c-0.8-0.5-1.8-1-2.6-1.5c0.8-0.1,1.7-0.2,2.6-0.3c0-0.2,0-0.6,0-0.7
		c-2.8,0.1-5.9,0-8.7,0c-0.9,0.6-2.1,1.3-3,1.9c-2-1.4-3.1-2.4-5.1-3.8c0.6-0.5,1.5-0.7,2.1-1.2c2.9,0.3,5.1,0.2,8,0.5
		c0.1-0.2,0.4-0.6,0.5-0.8c-2.8-0.4-5.9-0.5-8.7-0.9c-1,0.5-2,0.9-3,1.4c-6.2-3.9-12.3-7.8-18.5-11.7c-3-2.8-4.9-4.5-7.9-7.3
		c-0.8-1.6-2.5-3.9-3.3-5.5c1.9-0.6,3.8-1.3,5.8-1.2c7.4,1.5,13.9,3.1,20.8,5.1c2.4,2.4,4.5,5.3,6.6,8.9c0.4-0.1,0.7-0.1,1.1-0.2
		c-1.5-2.8-2.3-5.2-5.7-9.1c1.3-0.2,3.7-0.6,5-0.8c-0.1-0.2-0.2-0.5-0.3-0.7c-2.3-0.1-4.1,0-6.2-0.1c-7-2.3-14.4-4.7-21.8-5.6
		c-2.6,0.1-5.5,0.3-8.1,0.4c-5.7-1.7-9.4-4.1-14.8-7c5.5-2.3,9.3-4.3,14.8-6.8c5.6-0.3,10.9,1.4,16,3.4c3.8,2,7.6,4,11.4,6
		c2.5,1.9,5.7,4.5,8.1,6.4c0.3,0.1,0.7,0.3,1,0.4c0.1,0.1,0.3,0.2,0.5,0.2c2.4,0.9,5.1,1.9,7.1,3.6l1.9,1.5c-1,0.1-1.1,0.9-1.3,1.5
		c-1.1,0.1-1.8,1.7-1.5,2.4c-0.4,0.2-1.7,1.1-1.4,1.7c2.1,0.1,5.5-0.9,8.8-1.9l7.1,5.8l2.9-0.5l10.8,4.1c-0.3-0.4-0.6-1.2-0.9-1.6
		c-3.1-1.5-6.4-3.1-9.7-4.3l-2.9,0.4l-5-4.6l0.9-0.3c1.9-0.6-0.1-4.8-0.5-9l10.3,3.5l1.5-0.7l-6.5-2.6c-0.2-0.4-0.5-0.9-1-1.4
		c1.6-1.8-4.2-3.7-5.5-3.7c-0.5-1.6-0.8-5.2-0.9-7.1c2.5,0.6,5.1,1.2,7.8,1.9c3.9,5.8,6.3,10.7,9.1,17.1c3.2,2.3,4.2,3.4,7.4,5.8
		c0.3-0.1,0.7-0.3,1.3-0.4c-2.8-2.2-5-4-7.5-6.3c-3.1-6.2-4.8-10.4-8.4-16.2c1.8-0.1,9.3-0.5,11.2-0.8c2.2,1.4,5.7,2.8,7.3,3.5
		c2.9,4.9,5.8,9.9,8.7,14.8c1.2,0.5,3.4,1.7,4.7,1.9c0.7-0.2,1-0.2,1.6-0.6c-1.7-0.7-3.4-1.5-5.1-2.2c-2.6-4.7-5-8.7-7.6-13.4
		c7.2,3.6,14.2,6.5,21.2,10.5c0.9,1.5,4,8.8,5.3,9.8c2.3,1.4,9.5,7.1,9.5,7.1c0.3-0.3,0.7-0.7,1-1c-3-2.4-6.3-4.5-9.3-7
		c-1.5-2.7-2.1-5.2-3.6-7.9c6,3.9,9.8,5.5,14.8,9.7c3.1,2.6,6.8,6.2,10.1,9.9c0.1-1,0.5-1.2,0.5-2.1c-3.8-3.4-6.6-7.2-9.7-10.1
		c-1.6-1.5-5.8-3.8-7.3-5.1c2-0.2,4.4,0.1,6.4,0.1c3.5,1.7,8.2,3.6,11.7,5.3c-0.4-0.6-0.7-1.4-1.1-2.1c-2.6-1.5-6.2-2.9-8.8-4.4
		c0.9-0.5,1.8-0.9,2.7-1.4c3.2-0.3,6.9-0.8,10-1.1c-0.4-0.4-0.8-0.8-1.2-1.1c-3.4,0.2-6.7,0.5-10.1,0.7c-1.4,0.5-3,1-4.4,1.5
		c-2.7,0-5.1-0.1-7.8-0.1c-5.2-2.4-7.6-4.4-12.8-6.8c5.2-0.2,8.2-0.9,13.5-1.1c2,0.9,4.2,2.8,6.2,3.8c0.8,0.4,1.4-0.2,2.1,0.2
		c-2-1.5-3.9-3-5.9-4.5c2.5-0.6,5.1-1.3,7.6-1.9c-0.2-0.3-0.3-0.6-0.5-0.9c-3.4,0.6-6.8,0.8-10.2,1.4c-1.4,0-3.9,0-5.3,0
		c0.5-0.7,1.6-2.3,2.4-2.8c1.6-0.8,2.1-0.8,3.6-1.4c-0.2-0.3-0.3-0.7-0.5-1c-1.5,0.4-2.9,0.8-4.4,1.2c-0.6,1.2-2.4,3-3.3,3.9
		c-3.2,0.3-5.7,0.1-8.9,0.5c-3.3-1.5-6.7-3.1-10-4.6c2.4-0.8,5-1.4,7.7-2.2c1.6,0.1,3.6,0.2,5.2,0.3c0.1-0.4,0.2-0.7,0.2-1.2
		c-2.3-0.3-3.5-0.4-5.5-0.3c-3.5,0.4-8.5,2.1-12.1,2.3c-2.3-0.8-4.3-2.2-6.8-3.5c3.5-2.1,8.6-7.6,9.6-7.6c3.9-0.8,15.8,5.1,19.8,6.5
		l2.9,0.2c-0.1,0.7,0,1.5,0.5,1.7c-0.1,0.3,0.2,1,0.8,1.2c0.5-0.6,1.2-1.6,1.8-2.7l8.1,0.6l2.5-0.6l-9.9-1.2
		c0.9-1.8,1.8-3.8,2.3-5.6l1.1,0.4l9.1,0.7l-1.4-0.9l-7.1-0.6l-1.6-1c-0.3-0.7-0.5-1.3-0.7-1.8l5.9-0.2l1-0.8l-7.1,0.2
		c-0.2-1.2-0.1-2.3,0.1-3.6c0.8,0,1,0.8,1.1,1.5c0,0,1.1-0.4,1.1-1.5c0.5-1,1-2,0.3-2.7c-0.7-0.7-3-0.9-3-0.9c-0.5-1-0.8-2-0.8-3.4
		l12,2.9c0.1-0.5,0.2-0.8,0.3-1.2c-3.1-1.2-8.2-2.6-11.3-3.8l5.8-4.8c1.9-0.2,7.8-1.5,9.7-1.7l-0.8-1l-9.5,1.5
		c-1.9,1.3-3.9,2.8-6,4.4c-0.7-1.4-1.8-2.7-2.9-3.9l11.5-3.4c0.2-0.3,0.5-0.7,0.7-1.6c-1.5,0.4-9.6,2.7-13.5,3.8
		c-0.8-0.7-1.5-1.3-2-1.7c-0.6,0.5-1,1-0.7,1.6c-0.1,0.1-0.1,0.2-0.2,0.3l-13.2,0c0.7-1.2,6.1-6.4,6.7-7.8c-0.3-0.4-0.8-0.7-1.5-0.9
		c-3,2.8-5.3,5.9-8.2,8.8c-1.9,1-3.9,2.5-5.8,3.5c-9-0.6-18.8-2.9-27.8-1.9l-4.2-4.9c1.1-0.3,2.2-0.7,3.3-1c0.8-0.3,0.7-1.4,0.5-3
		l5.6,1.7l0.5-1.4l-6.4-2.3c-0.1-0.7-0.2-1.4-0.2-2.2c0.8,0.1,2.2,0.4,4,1.4c0.1-0.6,0.1-1.3-0.7-2.1c1.2-1.4-3.1-2.8-4-2.8
		c-0.2-0.7-0.3-2-0.4-3.3l14.8,6l8,5.3l2.7-0.5l-8.7-5.4l9.4-0.3l0.3-0.9l-10.2,0l-16.2-6.9c-0.5-2-5-2.5-6.9-3.3
		c-0.1,0.1-0.1,0.3-0.1,0.4l-16.9-6.2c3.7-0.1,7.1-0.4,10.9-0.3c2.6,0.8,7.1,2.8,9.7,3.6c2.2,1.2,4.4,2.3,6.5,3.5l5.8,3.4l5.5,3.2
		l1.6,0l-4.7-3.3l10.1-2l-2.3-0.6l-8.5,1.4l-10-5.1l-11-5.8c2.5-1.4,8-4.1,11.2-5.8c4-3.4,9.7-8.5,12.1-10.8
		c4.4-1.5,9.3-2.8,9.3-2.8c7,1.9,12.1,3.9,19.4,6.5c3.8,0,5.3,0.2,9.1,0.2c0.1-0.4,0.2-0.9,0.2-1.3c-3.5-0.2-4.3-0.1-7.8-0.3
		c2.5-2,6.7-3.9,9.2-5.9c-0.3-0.2-0.7-0.4-1-0.6c-2.9,2-7,4-10,5.7c-6-2.1-10.8-4-16.9-5.8c3.6-1.6,6.7-3.2,10.3-4.8
		c1.6-1.2,3.3-2.4,4.9-3.6c0-0.7-0.3-0.7-0.4-1.3c-2,1.4-3.7,2.1-5.8,3.4c-5.2,2.5-10.5,4.8-15.8,7.1c3.6-3.1,5.9-5.4,9.5-8.5
		l-1.7-0.3l-10.8,8.6c-1.8,0.6-3.4,1.3-4.4,2c-1.9,1.7-3,3.1-5.1,4.4c-0.1-1,0.2-2.7,0.1-3.7c1.2-3.5,1.9-6.4,3.1-9.8l-1.3,0.1
		l-3.5,9.8c-0.2,1.6,0.1,4.1,0,5.5c-2,1.5-2.6,2.2-4.1,3.4c-1.3,0.6-2.2,0.7-3.6,1.3c-0.8-2.2-2.2-6-3-8.2c0.6-0.8,2.3-4.4,3.9-7.9
		c0.1,0.2,0.1,0.4,0.2,0.4c-1,0.9-0.7,1.8-0.5,1.9c-0.6,0.6-0.6,1.6-0.4,2c-0.4,0.5-0.7,1.4-0.4,2c-0.5,0.7-0.4,1.9,0.1,2.2
		c-0.1,0.3,0.2,0.9,0.7,1.1c1.8-1.8,4.6-6.5,5.7-9.9c-1.1-2.6-0.9-4.2-0.4-6.2c0.8,0,1,0.8,1,1.4c0,0,1.1-0.3,1.2-1.4
		c0.6-0.9,1.1-1.9,0.5-2.5l8.1-5.9l7-7l-0.7-0.9l-7.6,7.2l-8.6,5.8c-0.2-0.1-0.5-0.1-0.7-0.1l5-10l-1.1,0l-4.9,8.5
		c-0.2-1.2,0-2.7,0.6-4.8c-0.4-1-1.1-1.9-1.8-2.8l2.8-1l0.1-1.1l-3.8,1.1c-0.9-1-1.8-1.8-2.6-2.4l2.4-1.3l-0.1-1.1l-6.4,3.4
		l-4.1,3.8l0.1-4.3l3.4-10l-1.1-0.1L248,89.3l-0.5,5.6l-6.7,6.2c-2.5,0.7-5.3,1.6-7.8,2.3c-0.1,1-0.8,3-1.1,3.9
		c-2.4,2.5-4.4,4.6-7.3,6.4c-0.3-1.6-0.5-3.6-0.6-5.3c-0.1-2,0.6-6.2,0.6-8c1.1-2.4,2.7-3.4,4.2-6.4c1.7-1.5,5.7-3.5,7.6-4.7
		c0.9-2.8,1.7-6.3,2.3-9.8c0.8-0.3,1.6-0.5,2-0.6c2-0.4,3.6-0.2,5.3-0.2c2.5,0,4.9-1.3,6.7-1.3c0.7,0,1.4,0.1,2.5,0.5
		c0.2-0.3,0.1-0.9-1.2-1.6c-0.5-2.1-3.1-1.6-4.6-1.5c-0.4-2.7-0.4-6.3,0.1-9.4c0.4-2.3-1.7-0.4-1.8,0.1c-0.8-0.2-1.6,1-1.5,1.8
		C245.7,67.1,244.6,67.5,245,69.5L245,69.5z M239.7,72.3c0.1,0.1,0.3,0.2,0.5,0.3c-0.4,0.1-0.3,0.7,0.6,1.1
		c-0.4,0.3,0.3,1.2,0.8,1.3c-0.9,0.5-1.6,0.9-2.4,1.1C239.5,74.8,239.6,73.5,239.7,72.3L239.7,72.3z M256.9,216.6l0.1,0
		c-0.8-1.4-1-2.9-0.9-4c-1.2-0.2-2.5-0.6-3.7-0.8c-1-0.2-1.9-0.2-2.8,0l4.4,2.1L256.9,216.6L256.9,216.6z M244.9,209.1
		c0-0.2,0.2-0.4,0.5-0.4c-0.3-0.4-0.1-1,0.3-1.1c0,0-0.1-0.1-0.1-0.1l-3.2-0.5C243,207.5,244,208.3,244.9,209.1L244.9,209.1z
		 M254.6,206.8c0.2,0,0.5-0.1,0.8-0.1c0-0.2-0.3-1.9-0.2-3.1c-0.4-0.4-0.7-1-0.6-1.7c-0.8,0.1-1.4-0.9-1.1-1.6
		c-0.7-0.2-1.2-0.4-1.3-1.3c-0.7-0.6-1-0.8-0.8-1.5l-1.6-0.4l-0.2,0c-1-0.2-1.9-0.4-2.9-0.7c-3.3-0.7-7.4-1-10.4-1.4
		c-1.9,0.5-6.1,1.3-8.1,1.9l13.6,7.2l11.6,2.1L254.6,206.8L254.6,206.8z M256.8,163.8c-1.6,0.4-3.1,0.7-4.1,0.7
		c-0.2-0.5,0.8-1.2,1.1-1.3c-0.2-0.5,0.2-1.4,0.9-1.7l-4.7-5.2l-0.2,0c-0.8,0.2-1-0.4-0.8-0.6c-0.2-0.2-0.2-0.4-0.1-0.5l0,0
		l-13.8-1.5c1,0.7,2.4,1.5,2.7,1.7c2.4,2.5,3.7,4.3,6.2,6.8c-0.1,0.4-0.3,0.8-0.4,1.2c-2.6-2.6-4.6-4.3-7.1-6.9
		c-2-1.1-4-2.6-5.2-3.3c-5.3-1.1-10.6-3.2-15.7-4.9c-3.8,2.2-6.8,4.4-10.9,6.6c9.9,2.1,19.5,4.2,29.4,6.3c6.6,2.9,12.1,5.3,18.7,8.1
		c2.5-0.3,6.7-0.7,8.1-0.7L256.8,163.8L256.8,163.8z M255.9,160.2c0.1,0,0.3,0,0.5,0c0.1-0.3,0.7-0.8,1.4-1c-0.2-0.5-0.4-1-0.5-1.4
		l-4.8-1.5L255.9,160.2L255.9,160.2z M249.2,152.9c0-0.3,0.1-0.6,0.4-0.6c-0.2-0.2,0.3-1.2,1.1-1c1.3,0.4,3,0.8,3.9,0.7
		c1.5-0.2,1.6-0.3,2.3-0.3c0-0.2-0.1-1.4,0-2.3c-0.3-0.3-0.5-0.7-0.4-1.3c-0.6,0.1-1-0.7-0.8-1.2c-0.5-0.2-0.8-0.3-0.9-0.8l-1.8-0.7
		c-2.9-0.8-14.5-5.6-16.9-6.5c0.7,0.9,1.4,1.7,1.9,2.1c0.1,0.8,0.6,1.8,0.7,2.7c1.5,0.6,5.9,1.9,7.3,2.5c-0.1,0.2-0.1,0.8-0.3,1
		c-1.2-0.3-5.3-1.7-6.6-2c0.2,0.9,0.8,4.9,0.9,5.2c-0.4,0-0.8,0.1-1.2,0c-0.5-2.5-1.3-6.2-2.3-8.5c-0.8-0.7-3.2-3.1-4.5-4.4
		c-0.9-0.3-1.9-0.5-3-0.7c-2,0.7-5.8,1.8-7.8,2.5c-0.9,2-2,4.2-3.7,5.6c4.9,2,9.7,3.6,14.6,5.6L249.2,152.9L249.2,152.9z M255.2,106
		c-1.6,0-3,0.7-4.6,1.4c-0.8,0.3-1.1-0.2-0.9-0.5c-0.3-0.3-0.4-0.6-0.1-0.8c-0.3-0.2-0.2-0.6,0.1-0.8c-0.2,0-0.2-0.7,0.2-0.8
		c-0.3-0.3,0.1-0.8,0.3-0.9c-0.3-0.2,0.1-1.2,0.9-1.1c1.4,0.2,2.7,0.3,3.6,0.1c1.5-0.4,1.9-0.5,2.6-0.7c0-0.5-0.5-4.6,0.1-5
		c-0.6-0.4-0.9-1.1-0.5-1.8c-0.6-0.1-0.7-1.1-0.4-1.6c0,0-0.1-0.1-0.1-0.1L249,96c-1,4.6-1.4,6.5-2.7,10.1c-1.1,1.2-8.5,7-9.7,8.3
		c2.3-0.7,6.9-1.7,8.7-2.4L255.2,106L255.2,106z M255.8,92.2c0-0.1,0-0.2,0.1-0.3c-0.5-0.7-0.6-1.5-0.1-2.3c0-0.1,0-0.1-0.1-0.2
		l-2,1.1l-3,3.1L255.8,92.2L255.8,92.2z M315.4,194.8c0-0.5,0.2-0.9,0.4-1.2c-0.2-0.4-0.3-1.4,0.3-2.1c-0.2-0.1-0.5-1.1,0.4-2
		c-0.2-0.2-0.4-0.9-0.5-1.7c-3.1-0.2-6.1-0.2-9.2,0.1c-2.3,0.3-5,0.3-7.2,0.6l13.8,6.1L315.4,194.8L315.4,194.8z M315.8,185.7
		c0-0.7,0-1.3,0-1.8c-0.9,0-1.5-0.3-2.4-0.4c-1.7-0.1-3,0.7-4.6,1.4c-0.8,0.4-1.1-0.2-0.9-0.5c-0.3-0.3-0.4-0.6-0.2-0.8
		c-0.2-0.1-0.3-0.4-0.2-0.6c-2.1,1-4.3,2-5.9,2.4l12.4,0.3L315.8,185.7L315.8,185.7z M313.7,179.6c0.6-0.2,1-0.3,1.5-0.4
		c0-0.1,0-0.3-0.1-0.7L313.7,179.6L313.7,179.6z M314.7,175.5c0-0.8,0-1.4,0.2-1.5c-0.6-0.4-1-1.2-0.7-1.9c-0.6-0.1-0.8-1.2-0.5-1.7
		c-0.5-0.3-1-1-0.7-1.8c-0.1-0.1-0.1-0.2-0.2-0.3c-4.2,0.3-10.2,0.6-12.7,1.1c-2.1,0.8-2.5,1.4-4.6,2.2c3.6,0.6,6.6,1.9,9.9,2.9
		c-0.1,0.6-0.1,1.1-0.2,1.7c-4.4-1.6-8.2-2.4-12.9-2.6c-2.8,1.9-8.8,5.1-11.6,7c-3,1-6,2.2-9,3.2c-3.2,0.3-5.9,1.5-9.1,1.8
		c5.1,2.3,11.4,6.4,16.5,8.7c2.4-1.2,8.8-6.2,11.2-7.4c11.2-4.2,13.5-4.9,20.9-8.4C312.4,177.4,313.6,176.5,314.7,175.5L314.7,175.5
		z M118.3,207.7c4.8,1.9,7.6,2.7,12.2,0.5c-4.3-2.1-9-4.3-13.3-6.4c0,0-2.5-0.3-4.7-0.5C114.3,203.1,116.1,205.5,118.3,207.7
		L118.3,207.7z M83.6,211.6c7.4,0.1,13.7-3.8,21.3-4.1c3.5-0.2,5.2-0.3,8.6,0c-1.8-2.5-3-3.7-4.8-6.2c-4.5,0.1-8.4,0.4-12.9,0.5
		C91.5,204.9,87.1,207.7,83.6,211.6L83.6,211.6z M69.8,211.2c1.9,0.1,8.4,0.4,11.5,0.5c2.4-3.4,5.8-6.1,8.9-8.9
		c-3.9,1.3-8.1,3.9-12.8,5.9C74.9,209.7,72,210.2,69.8,211.2L69.8,211.2z M247.3,97.1c-0.8,2.4-1.8,5.8-2.9,8.1
		c-1.7,1.1-4.1,3.1-6.3,4.5c-1.6-0.3-3.6-0.6-5.1-0.9c0.7-1.6,0.9-2.5,1.6-4.1c1.7-0.5,4.1-1,6-1.4L247.3,97.1L247.3,97.1z
		 M237.4,110.9c-1,0.8-2.6,1.9-3.4,2.8c-1.5-0.1-6.1,0.7-7,0.7c1.7-1.3,3.8-3,5.3-4C233.6,110.5,236.1,110.7,237.4,110.9
		L237.4,110.9z M220.4,127.4c-2.8,0.7-5.6,1.4-8.4,2.1c1.8-2.3,2.5-3.3,4.3-5.6c1.9-1.2,2.4-1.6,3.4-2.3c0.8-0.7,4.3-4.1,4.7-4.7
		c2-0.4,4.9-0.5,6.9-0.9c-1.1,0.8-5.7,3-6.7,3.9C223.6,121.8,221.2,125.9,220.4,127.4L220.4,127.4z M245.7,132.3
		c-4.8,0-10.6,0.1-15.4,0.1c-1.2-0.8-2.4-1.5-3.6-2.3c1,0,1.9,0,2.9,0c1.5-0.5,2.7-0.5,4.2-1c2.1,0.6,4.4,0.9,6.3,1.4
		c0.4,0.4,1,1,1.4,1.3c0.2-0.1,0.3-0.4,0.6-0.5c-0.4-0.6-1-1.2-1.4-1.7c-2-0.4-3-0.9-5-1.3c0.5-0.2,0.7-0.2,1.2-0.4
		c3.2-0.3,5.9-0.2,9.4-0.5c0.2-0.1,0.6-0.7,0.8-0.9c-3.4,0.2-7.1,0-10.6,0.1c-2.1,0.6-5.4,0.9-7.5,1.4c-1.8-0.1-3.4-0.3-4.9-0.2
		c0.3-0.6,2.5-5.3,3.1-6.7c6.6-2.5,11.7-5.3,18.8-7l11.3-6.6c-1.7,3.9-4.1,7.7-5.8,11.7c0.6,3.3,1.6,6.1,2.4,9.4
		C251.9,129.2,250.8,130.2,245.7,132.3L245.7,132.3z M278,198.2c-1.9-0.2-6.9,0.1-9.8,0c-0.4-0.6-1.8-2.3-2.1-2.9
		c-2.3-2.4-4.5-4.4-6.8-6.7C265.4,190.9,272.3,195.7,278,198.2L278,198.2z M287.2,172.5c-2.8,1.4-6.5,3.1-9.3,4.6
		c-1.1-0.3-13.2-2.7-21.8-5.9c3.3-0.8,12.9-1.1,13.5-1.1C271.5,169.7,284.3,172.1,287.2,172.5L287.2,172.5z M141,146.4
		c-0.4,3.2-1.2,5.8-1.6,9.1c-2.2,1.8-6.7,6.5-7.9,8.3c-0.5,0.2-2.7,9.4-3.5,13.6c-1.4-1.2-3.4-8.2-4.6-11.3c-0.6-3.6,0-5.8,0.7-8
		c1.1-3,5.7-6.3,5.7-6.3C133.7,149.9,137,148.1,141,146.4L141,146.4z M143.5,142c0.2-1.3,0.4-2.7,0.6-4c1.7,0.2,5,0.8,6.7,0.9
		C148.9,140.1,145.5,141,143.5,142L143.5,142z M159.5,138.8c-0.4,0.8-0.9,1.7-1.3,2.5c-3.1,2.3-5.5,4.5-8.3,7.1
		c-2.2,1.4-5.5,3.8-7.7,5.2c0.4-2.8,0.6-5.6,0.9-8.5c4.1-1.7,8.2-3.9,12.3-5.7C156.7,139.3,158.1,139.1,159.5,138.8L159.5,138.8z
		 M163,133.2c-1,1.4-2.1,2.9-2.9,4.4c-0.6,0.1-1.9,0.1-2.4,0.2C159.3,136.3,161.2,134.8,163,133.2L163,133.2z M174.6,129.5
		c-1.2,2.2-2.5,4.6-3.5,6.7c-3.8,1.7-6.9,3.1-10.7,4.9c0.3-0.8,0.6-1.6,0.9-2.4c0.6-0.1,2.6-0.5,3.3-0.5c0.4-0.4,0.6-0.8,1-1.2
		c-1.4,0.2-2.5,0.3-3.9,0.5c1.3-2.2,4.5-7.1,6.1-9C169.5,128.6,173,129.2,174.6,129.5L174.6,129.5z M181.6,131.4
		c-1.5,1.6-3.2,2.8-4.5,4c-1.4,0-2.9,0.4-4.3,0.4c0.9-2,1.9-4.1,2.9-6.1C177.5,130.3,179.6,130.7,181.6,131.4L181.6,131.4z
		 M100.3,151.6c-2.4-1.2-6.6-1.5-9-2.6c-3.4-1.6-6.4-3.1-10-4.4c-1.8-1.9-4.8-3.2-6.8-5.3c-1.4-1.4-2.9-3.4-4.1-5.4
		c2.1-1.3,8.1-3.3,9.1-3.5c8.8-2.6,17.3-1.3,26.2-0.3c-1.4,2.2-2.7,4.2-3.5,6.3c-1,2.4-1.5,4.8-2.4,7.5c-2.5-3.9-5-7.9-7.5-11.8
		c-0.3,0.2-0.6,0.3-0.9,0.5c1.8,2.3,5.5,8.8,7.4,13.6C99.7,148.9,100.2,150.1,100.3,151.6L100.3,151.6z M127,138.5
		c1.6-0.8,4-2.1,5.6-2.9c2.4,0.7,5.3,0.5,10.3,2c-0.5,1.7-0.7,4-1.3,5.6c-4,2.1-8,3.2-12.2,4.8c-1.1,1-3.5,2.1-4.6,3.1
		c0.5-1.8,1.1-3.7,1.5-5.5C126.8,143.2,126.9,140.9,127,138.5L127,138.5z M61.9,128.2c1.3-0.4,3.9-0.5,5.4-0.6
		c3.7,0.8,6.8,1.3,9.3,2.2c-2.1,0.8-5.4,1.8-7.5,2.6C67.4,130.6,64.7,129.5,61.9,128.2L61.9,128.2z M65,132.8c1.5,2.1,3.5,4.7,5,6.9
		c2.4,2.2,4.5,4.2,7.2,6.1c-3.8,0.2-5.7,0.5-8.9,0.5c-2.3-0.8-4.5-1.5-6.8-2.3c0.3,0.7,0.5,1.4,0.9,2.1c1.7,0.8,4,1.2,5.7,1.9
		c3.4-0.3,7,0.2,10.9,0.4c3.9,1.4,5.9,2.4,9.7,4c5.2,2.2,11.1,3.9,16.5,5.8c-5.6,0.2-9.7,0.2-15.3,0.3c-4.1-1.2-7.8-1.5-11.9-2.7
		c-5.9-2.8-11.1-4.5-17-7.3c-3-4.7-6.1-13.9-8-22.9C56.6,127.4,61.2,131.5,65,132.8L65,132.8z M103.6,99.6c0.1-1,1-4,1.3-4.7
		c0.4,1,1.2,4.1,1.3,5.7C105.5,100.3,104.7,100.1,103.6,99.6L103.6,99.6z M112.9,115.9c-3.2-1.6-6.4-3.7-9.7-5.9
		c-0.1-3-0.1-5.5,0-8.4c0.5,0.2,1.9,0.9,2.4,1.1C108,106.8,110.1,112.1,112.9,115.9L112.9,115.9z M121.5,98.3c-1-3.5-2.4-7.5-3.4-11
		c0.8,0.2,1.5,0.5,2.2,0.7c1.1,2.9,1.8,3.7,2.9,6.6C122.7,95.5,122.3,97.3,121.5,98.3L121.5,98.3z M132.2,96
		c-0.6,6.9-3.3,14.3-7.8,19.7c-0.9,1.8-1.7,3.5-2.3,5.3c-0.3-0.2-2.6-2.3-3-2.5c2-4.3,3.8-8.3,4.2-16.8
		C126.5,98,127.8,98.2,132.2,96L132.2,96z M150.1,70.5c-1,1.5-1.5,2.5-2.7,3.7c-1.1,0.4-1,0.4-2.2,0.8
		C147.2,73.4,148.2,72.1,150.1,70.5L150.1,70.5z M87.4,194.4c2.3-1.1,4.8-1.9,7.1-2.9c2.4-1.9,5.4-4.7,7.8-6.6
		c4.8,1.2,6.5,1.9,11,4.3c2.7,1.4,7.6,2.4,10.6,4.1c1.9,1.1,5.4,5.3,6.5,6.9c-5-1.9-10-3.4-14.7-4.2
		C106.8,194.3,97.2,196.3,87.4,194.4L87.4,194.4z M64.6,204.8c4.1-1.9,10-4.9,14-6.7c2.7,0.4,5.3,0.9,8,1.3
		c-3.2,1.3-6.7,3.1-10.3,4.9c-2.4,1.2-5,2.3-7.2,3.2C67.9,206.7,65.9,205.5,64.6,204.8L64.6,204.8z M74,192.1c4,0,12.2-0.5,16.2-0.5
		c-1.7,0.8-2.9,1.5-4.6,2.2C83.2,193.8,77.6,193.3,74,192.1L74,192.1z M187.9,146.9c-1.4-0.8-3.7-3.1-6.1-5.8
		c3.5-1.7,6.9-2.9,10.4-4.6c-0.2-0.3-0.3-0.6-0.5-0.9c-3.7,1.4-7.3,2.7-11,4.1c-0.8-0.9-1.9-1.7-2.5-2.9c1.9-1.5,3.9-2.9,5.6-4.7
		c2.4,0.6,4.8,1.3,7.2,1.9c0.4-0.2,0.8-0.4,1.3-0.5c-2.6-0.7-4.9-1.8-7.5-2.5c1.6-1.8,3-3.2,4.7-4.9c1.2,0.7,2.4,1.4,3.6,2.1
		c0.6,3.3,0.7,6.1,0.1,8.8c-1.3,3.3-3.4,3.3-4.4,6.6C188.5,144.7,188.1,145.9,187.9,146.9L187.9,146.9z M190.5,149.8
		c4.6-1.5,8-1.9,12.6-3.4c0.5-0.5,0.7-1.1,1.1-1.6c-5,1.5-8.3,2.1-13.4,3.2c0.2-4.5,3.3-6.6,5-8.7c4.3-2.8,9.7-3.9,14.4-6.3
		c3.2-0.6,5.8-1.6,9.1-1.8c-1.5,5.6-1.9,7.6-5.7,11.9c-5.3,3.8-10.4,7-15.9,10.4c-1.1,0.1-6.8,0.7-7.5,0.7
		C190.3,152.9,190.3,151.1,190.5,149.8L190.5,149.8z M158.2,188.4c-3.6,2.7-6.8,4.6-10.1,7.9c-0.1,4.7-0.2,9.5,1.6,14
		c2.3-1.8,5-3.3,7.2-4.4C157.1,200.1,157.2,194.3,158.2,188.4L158.2,188.4z M95.4,174c-2.7,3-4.1,6.1-8.2,8.5
		c-4,1-13.8,5.9-17.8,6.9c-3.1-1.6-4.9-4.3-8.7-7.2c-1.9-1.5-4.8-1.6-7.5-3.2c-2.5-2.7-5.3-6.9-7.9-9.6c0.2,0,2.3-0.6,2.6-0.6
		c0.1-0.1,0.1-2.9,0.1-3.3c10.5-2.4,19.8-4.5,30.6-4.2c2.9,0.8,7,1.5,9.9,2.3c7.5,0.5,14.4-0.5,21.6,0.3c1,0.8,2.2,3.7,4.5,6.8
		c-4.1-0.1-6.3-0.1-10.3,0.1c-2.1,0.4-4.5,1-6.9,0.5c-3.7-0.7-13.1-3.9-16.7-4.7c-3.4,1-6.5,1.9-9.9,2.9c-3.9,2.5-6.8,4.5-10.5,7.3
		c-1.2,0.4-2.9,0.8-4.2,0.9c0.4,0.5,0.3,0.7,0.6,1c1-0.2,3.1-0.8,4.3-1c2.1-1,8.2-5.3,10.6-6.7c2.2-1,5.3-1.7,7.1-2.1
		c-3.2,3-7.4,7.3-10.6,10.2c0.4,0.3,0.7,0.5,1.2,0.7c3.9-3.7,7.7-7.5,11.6-11.2C85,169.9,90.9,172.4,95.4,174L95.4,174z
		 M101.3,174.2c5.2-0.4,10.2-0.2,15.5,0.2c2.5,4.7,3,8.8,5.5,13.6c-2.2,0-4.5-0.6-7.1-1.5c-7.3-2.4-12.3-4-18.9-7.8
		c-0.1,0.3-0.2,0.7-0.3,1c1.7,1.1,3.3,2.3,5,3.4c-2.6,1.7-4.5,4-8.1,7.2c-3.4,0-16,0.5-21.3,0.6c2.3-1.1,7.5-2.8,9.8-3.9
		c2.6-1.3,5.6-2.2,8.2-3.5C93.6,179.2,96,177.1,101.3,174.2L101.3,174.2z M115.3,132.1c-2.2-0.7-4.3-1.3-6.5-2
		c-1.6,1.7-3.2,3.6-4.5,5.8c-1.2,2.1-1.6,5.6-2.5,8c0.2,3.4,0.8,5.6,1.9,8.4c4.4,1.9,6.7,2.3,11,4.5c2.2-4.3,4.1-7.8,5.3-12.1
		C121.2,140.4,117.8,135.4,115.3,132.1L115.3,132.1z M110.5,128.2c1.5,0.3,5.1,1.4,6.6,2c1.4,1.8,2.8,3.6,4.2,5.4
		c0.2-2.2,0.3-2.6,0.2-4.9c-2-3.1-3.8-5.1-6.3-7.7C113.7,125,112.1,126.6,110.5,128.2L110.5,128.2z M98.2,68.8
		c1.8,2.9,3.2,5.1,5.5,8.1c-2-0.3-4.1-0.1-5.5-0.7c-0.7-0.7-4.3-4.9-4.8-5.8C95.8,69.8,96.8,69.2,98.2,68.8L98.2,68.8z M132.3,88.1
		c0.4,1.7,0.3,3.3,0.1,4.9c-1.3,0.6-5.5,2.3-6.6,2.8c1.8-2.8,5.2-10.7,6.1-14.1c4.6-1.9,8.4-2.6,12.9-4.7
		c-4.1,4.7-6.3,9.8-10.6,14.2c0.1-1.1,0.1-2.3-0.4-3.7C133.5,87.7,132.7,88,132.3,88.1L132.3,88.1z M161.9,159.3
		c1.2,0.4,2.4,0.9,3.6,1.3c0,0.4,0.1,1,0.1,1.3c-1.2-0.3-2.4-0.5-3.6-0.8c0.4,2,0.3,3.4,0.7,5.6c-0.3,0.2-1.3,1-1.7,1.2
		c-0.7-3.6-1.3-7.6-2-11.2c-3.9-0.8-7.5-0.9-11.5-0.9c-2.4,1.7-3.6,2.5-6.2,4.8c-1.8,2.8-3.9,5.3-5.1,7.7c-1.7,5-2.3,11.1-2.9,16.8
		c2.7,5.7,6.2,9.4,9.4,14.3c-0.3-6.1,0.2-10.5,0.8-15.7c2.3-4,5.6-6.3,8.4-10c0-3.6-0.5-8.6-0.5-12.2c0.5-0.1,0.5-0.2,1.1-0.3
		c0.4,3.8,1,7.8,1.4,11.6c1.3-2.3,1.9-4.6,3.2-6.9c-0.1-0.9-0.8-3.2-0.9-4.2c0.1-0.3,0.4-0.6,0.7-1c0.5,1.9,0.9,3.7,1.4,5.5
		c-1.3,2.8-2.2,6-3.4,8.8c-2.3,3.3-5,6.2-7.1,9.6c0.2,0.7,0.1,2.8,0.4,4.1c3.5-2.1,7.6-5.3,11.1-7.3c0.4-2.8,2-9.1,2.8-11.4
		c6.2-8,13.9-11.7,24.6-15.6c0.3-1.6,0.4-2.9,0.9-5.3c-4.9-3.5-7.7-7.7-11.1-11.2c-0.9,0.2-2.4,0.1-3.3,0.3
		c-1.2,0.3-2.1,0.9-3.3,1.2c3.4,2.5,6.7,5,10.1,7.5c1.1,0.7,2.1,1.5,3.2,2.2c-0.3,0.2-0.7,0.3-1,0.5c-1.4-0.7-2.7-1.4-4.1-2.1
		c-3.3-2.2-7.2-4.8-10.5-7c-2.5,0.9-4.6,1.8-6.9,2.9c-1.4,1.4-2,2-3.5,3.4c1,1.4,1.5,2.5,2.6,3.9c3.3,0.9,5.6,1.4,8.9,2.3
		c1.3,0.8,3.7,2.3,5,3.1c0,0.3-0.8,1.2-0.8,1.5c-2.5-1.1-2.8-1.6-5.2-2.7c-2.4-0.7-6.8-2-9.2-2.5c-0.9-1.1-2.1-2.8-3.1-3.9
		c-2.1,1.6-3.3,3-5.4,4.6c3.9,0.6,7.3,1.3,11.2,1.9C161.3,156.5,161.7,158,161.9,159.3L161.9,159.3z M220.2,178.9
		c-1.1-1.3-5.2-5.5-6.7-7.5c-3.1-1.5-5.7-3.2-9.1-4.7c1.1,1.3,2.4,3.7,3.6,5c-0.5,0-1.1-0.1-1.6-0.1c-1.4-1.9-2.8-3.8-4.2-5.7
		c-3.3-1.3-5.9-2.1-9.4-2.5c-3.3,0.1-10.1,0.7-14,2.1c-4.6,3.5-8.6,5.2-10.2,12.4c4.4-1.4,9.7-1.6,14.2-2c2-1,2.8-1.7,4.7-2.7
		c2.4,0.4,8.6,1.5,10.7,2.1c-0.6,0.3-1.2,0.9-1.6,1.2c-3.1-0.4-5.4-0.9-8.5-1.3c-1.6,1.3-3.1,2.3-4.7,3.6c-1.7,0-2.8,0.5-4.5,0.5
		c4.8,3.1,8.2,5.5,13,8.6c-0.7,0-1.6,0.2-2.2,0.2c-2.4-1.4-9.2-5.9-11.6-7.3c1,3.6,1.8,6.8,3.7,9.8c-1.1-0.6-1.8-0.6-2.5-1.2
		c-0.9-2.4-2.3-6.3-3-8.7c-3.3,0.3-5.5,0.4-8.2,2.4c-2.1,7.6-1.9,12.3-1.5,20.3c2.7-0.7,4.9-1.2,7.6-1.9c2.5-1.2,5-2.3,7.5-3.5
		c5.8-2.4,12.3-5,17.3-9c2.2-2.4,5.8-12.5,6.2-15.6c0.6,0.1,1.1,0.1,1.7,0.2c-0.8,2.5-1.2,5.9-2.1,8.5
		C207.4,181.6,218.5,179.2,220.2,178.9L220.2,178.9z M229.8,165.1c0.9,1,3.9,3.4,5,4.5c2.4,1.6,5.3,2.6,7.6,4.1
		c-0.3,0.2-0.7,0.4-1,0.5c-2.2-1-5.6-2.4-7.9-3.9c-1.4-1.2-5.1-4.6-5.9-5.7c-5.8-1-13-2.4-24.2-4.6c-2.4,0.4-4.6,0.7-7,1.1
		c8,3.1,14.3,6.7,21.6,10.9c1.4,0.2,3.9,1.6,5.3,1.9c0.5-0.1,3.2-1.8,3.7-1.9c3,0.9,7.4,2.1,10.4,3c-0.4,0.2-0.9,0.3-1.3,0.5
		c-2.1-0.5-6-1.5-8.1-2c-0.8,0.1-4.2,1.6-4.9,1.8c-2.2-0.3-4-1.4-5.7-1.8c1.6,2,2.7,3.6,4.4,4.9c4,0,7.4-1,11.2-1.4
		c3.3-1.1,11.9-2.9,15.2-3.7c0.4,0.3,0.4,0.5,0.8,0.8c-3.8,0.9-12,3.3-15.7,4.2c-1.5,0.2-8.2,1.3-11.1,2c-6,1-11.8,2.1-17.8,3.2
		c-0.6,1.7-1.2,3.8-2,5.5c6.6-0.7,11.1-2.1,16.3-3.2c1.4-0.8,11.5-3.8,16.2-5.1c8.4,0,17.3,0.6,25.6,0.6c3.8-0.8,9.8-2.2,13.6-2.9
		c-7.4-1.9-15.2-3.7-22.6-5.5C244,171.2,238,166.5,229.8,165.1L229.8,165.1z M239.5,186c-1.8,1.8-2.9,2.9-8.1,6.2
		c-1.6,0.4-4.5,1.2-6,1.4c-1.3-0.2-4.1-2-4.1-2c4.2-1.7,8.3-3.5,12.5-5.2C233.8,186.3,238.6,185.9,239.5,186L239.5,186z
		 M236.6,191.9c0,0,10.2,0.8,11.2,1.1c5.7,1.7,12,3.6,17.9,4.8c-0.4-0.5-1.5-1.8-1.7-2.1c-1.8-2-9.9-8.6-9.9-8.6
		c-4.3-0.3-8.4-0.7-12.6-1C239.9,188,238.1,190,236.6,191.9L236.6,191.9z M222.7,131c0.6,0,1,0.1,1.6,0c0.6,0.5,1.6,1.1,2.2,1.7
		c-1.7,0.5-3.1,1.2-4.8,1.7C222.1,133.4,222.2,132,222.7,131L222.7,131z M488.2,88.3c2,1.9,5.6,6.1,7.3,9.9
		c-0.6,3.8-0.4,5.9,0.7,8.1c0,0,2.4,0.7,3.3,1.8c0.8,1,0.3,2.1-0.2,3.1c0.1,1.4-1.1,1.6-1.1,1.6c-0.1-0.8-0.4-1.9-1.2-2
		c-0.3,2.4-0.3,4.5,1.3,8.1c-0.8,4.2-3.3,9.5-5.1,11.5c-0.6-0.3-1-1.2-0.9-1.6c-0.6-0.4-0.9-2.1-0.4-2.8c-0.3-0.7-0.2-1.9,0.2-2.5
		c-0.3-0.5-0.4-1.8,0.2-2.4c-0.2-0.2-0.6-1.4,0.3-2.4c-0.5-0.7-1-4.9-1-6.7c-1-0.2-1.6-0.7-2.6-1c-1.8-0.5-3.3,0.2-5,0.7
		c-0.8,0.3-1.2-0.5-1-0.8c-0.3-0.4-0.5-0.8-0.3-1c-0.3-0.3-0.4-0.9,0-1c-0.3,0-0.4-1,0.1-1c-0.3-0.4,0-1,0.3-1
		c-0.3-0.3,0-1.5,0.8-1.2c1.5,0.5,3,1,4,0.9c1.6-0.2,2-0.2,2.8-0.3c0-0.6-1.2-6.1-0.5-6.4c-0.7-0.6-1.1-1.6-0.8-2.5
		c-0.7-0.2-0.9-1.6-0.6-2.1c-0.5-0.5-1.2-1.5-0.9-2.3c-0.6-1-0.9-2.1-0.4-3C487.2,89.2,487.6,88.7,488.2,88.3L488.2,88.3z
		 M212.5,48.5c-3.3,0.9-7.1,1.9-9.3,1.8c-0.2-0.5,0.8-1.1,1.1-1.3c-0.2-0.6,0.5-1.7,1.3-1.8c0.3-0.5,0.4-1.2,1.5-1.1
		c0.1-0.3,0.8-0.8,1.4-0.9c-0.5-1.1-0.5-2.2-0.4-3c-0.9-0.2-1.9-0.5-2.7-0.8c-1.6-0.4-2.9,0.1-4.7,0.4c-0.9,0.2-1-0.4-0.8-0.7
		c-0.2-0.3-0.1-0.5,0.2-0.7c-0.2-0.2-0.4-0.8,0-0.9c-0.2,0-0.2-0.8,0.3-0.8c-0.2-0.3,0-0.8,0.3-0.8c-0.2-0.2,0.4-1.2,1.1-0.9
		c1.3,0.4,2.9,0.9,3.9,0.9c1.5-0.1,1.6-0.2,2.4-0.2c0-0.2-0.1-1.4,0.1-2.3c-0.3-0.3-0.4-0.8-0.3-1.3c-0.6,0.1-1-0.7-0.7-1.3
		c-0.5-0.2-0.9-0.3-0.9-1c-0.6-0.6-0.7-0.7-0.4-1.5c-0.6-0.4-0.9-1.2-0.5-2c2,0.9,7,1.7,6.8,4.1c-0.1,1.4-0.1,4.3,0.2,5.5
		c0.9,0,5.2,1.7,3.9,3c0.8,0.9,0.8,1.5,0.7,2.1c-1.8-1.1-3.1-1.5-3.9-1.6C212.7,44.7,214,48.1,212.5,48.5L212.5,48.5z M190.6,90.7
		c-2.2-3.6-3.8-7.2-4.7-8.8c-0.7-1.3-1.6,1-1.5,1.7c-0.9,0.2-1,1.8-0.5,2.6c-0.6,0-1.4,1.2,0.3,3c-0.6-0.1-0.7,1.2,0.1,1.6
		c-0.5,0.1-0.3,1.3,0.5,1.7c-0.5,0.1-0.3,0.9,0.6,1.4c-0.4,0.1-0.3,0.8,0.6,1.2c-0.4,0.3,0.3,1.3,0.8,1.4c-1.9,1-3,1.3-5.5,1.5
		c-0.6,0.1-0.8,0.4-0.3,0.8c-0.7,0.1-0.8,0.5-0.6,0.7c-0.8,0.2-1.3,1.1-0.3,1.3c-1,1.8,4.1-0.3,5.5-0.4c2.1-0.4,3.9,0,5.7,0
		c2.6,0.1,5.2-1.2,7.2-1.1c0.8,0.1,1.5,0.1,2.6,0.7c0.2-0.4,0.1-1-1.2-1.8c-0.5-2.3-3.2-1.9-4.9-1.8c-0.3-2.9-0.1-6.7,0.5-10
		c0.5-2.4-1.7-0.5-1.9,0.1c-0.8-0.3-1.7,1-1.7,1.8C191.5,88.1,190.3,88.6,190.6,90.7L190.6,90.7z M292.5,218.4
		c1.6,1.2,4.5,3.9,5.8,6.6c-0.7,3-0.6,4.5,0.2,6c0,0,2.1,0.2,2.7,0.9c0.6,0.6,0.2,1.5-0.3,2.4c0,1-1,1.3-1,1.3c0-0.6-0.2-1.4-1-1.4
		c-0.4,1.9-0.5,3.4,0.7,6c-0.9,3.3-3.3,7.7-4.9,9.4c-0.5-0.1-0.8-0.8-0.7-1.1c-0.5-0.3-0.6-1.5-0.2-2.1c-0.2-0.5-0.1-1.4,0.3-1.9
		c-0.2-0.4-0.3-1.3,0.3-1.9c-0.2-0.1-0.5-1,0.4-1.8c-0.4-0.4-0.7-3.6-0.5-5c-0.8,0-1.4-0.3-2.2-0.4c-1.5-0.1-2.8,0.6-4.3,1.2
		c-0.7,0.3-1-0.2-0.9-0.5c-0.3-0.3-0.4-0.5-0.2-0.7c-0.3-0.2-0.3-0.6,0.1-0.8c-0.2,0-0.3-0.7,0.2-0.8c-0.3-0.3,0-0.7,0.3-0.8
		c-0.3-0.2,0-1.1,0.8-1c1.3,0.2,2.5,0.4,3.4,0.2c1.4-0.3,1.7-0.4,2.4-0.6c0-0.4-0.7-4.5-0.1-4.8c-0.5-0.4-0.9-1.1-0.6-1.8
		c-0.6-0.1-0.7-1.1-0.4-1.5c-0.4-0.3-0.9-1-0.6-1.6c-0.5-0.7-0.6-1.5-0.2-2.2C291.5,219.3,291.9,218.8,292.5,218.4L292.5,218.4z
		 M394,140.4c-3.3,0.9-7.1,1.9-9.3,1.8c-0.2-0.5,0.8-1.1,1.1-1.3c-0.2-0.6,0.5-1.7,1.3-1.8c0.3-0.5,0.4-1.2,1.5-1.1
		c0.1-0.3,0.8-0.8,1.4-0.9c-0.5-1.1-0.5-2.2-0.5-3c-0.9-0.2-1.9-0.5-2.7-0.8c-1.6-0.4-2.9,0.1-4.7,0.4c-0.9,0.2-1-0.4-0.8-0.7
		c-0.2-0.3-0.1-0.5,0.2-0.7c-0.2-0.2-0.4-0.8,0-0.9c-0.2,0-0.2-0.8,0.3-0.8c-0.2-0.3,0-0.8,0.3-0.8c-0.2-0.2,0.4-1.2,1.1-0.9
		c1.3,0.4,2.9,0.9,3.9,0.9c1.5-0.1,1.6-0.2,2.4-0.2c0-0.2-0.1-1.4,0.1-2.3c-0.3-0.3-0.4-0.8-0.3-1.3c-0.6,0.1-1-0.7-0.7-1.3
		c-0.5-0.2-0.9-0.3-0.9-1c-0.6-0.6-0.7-0.7-0.4-1.5c-0.6-0.4-0.9-1.2-0.5-2c2,0.9,7,1.7,6.8,4.1c-0.1,1.4-0.1,4.3,0.2,5.5
		c0.9,0,5.2,1.7,3.9,3c0.8,0.9,0.8,1.5,0.7,2.1c-1.8-1.1-3.1-1.5-3.9-1.6C394.1,136.6,395.5,139.9,394,140.4L394,140.4z M374.8,91.5
		c-3.3,1.4-7.2,3-9.4,3.1c-0.3-0.5,0.7-1.3,1-1.5c-0.2-0.6,0.2-1.9,1.1-2c0.2-0.6,0.2-1.3,1.4-1.3c0.1-0.3,0.7-0.9,1.3-1.1
		c-0.6-1.1-0.9-2.3-0.9-3.1c-0.9-0.1-2-0.3-2.9-0.4c-1.7-0.2-3,0.4-4.8,1.1c-0.9,0.3-1.1-0.3-0.9-0.6c-0.3-0.3-0.2-0.5,0.1-0.7
		c-0.3-0.2-0.5-0.8-0.1-0.9c-0.3,0-0.3-0.8,0.2-0.9c-0.2-0.3-0.1-0.8,0.2-0.9c-0.3-0.2,0.2-1.3,1-1.1c1.4,0.3,3.2,0.6,4.2,0.4
		c1.6-0.3,1.6-0.4,2.4-0.5c0-0.2-0.3-1.5-0.2-2.4c-0.3-0.3-0.5-0.7-0.5-1.3c-0.6,0.1-1.1-0.6-0.9-1.2c-0.6-0.1-1-0.2-1.1-1
		c-0.7-0.5-0.9-0.6-0.6-1.5c-0.7-0.3-1.1-1.1-0.8-2c2.2,0.7,7.5,0.8,7.6,3.3c0.1,1.4,0.4,4.5,0.9,5.8c1-0.1,5.6,1.1,4.4,2.6
		c1,0.8,1.1,1.5,1,2.1c-2-1-3.5-1.1-4.3-1.2C374.5,87.5,376.3,90.9,374.8,91.5L374.8,91.5z M469.6,97.1c-3.5,0.8-7.6,1.7-9.8,1.4
		c-0.2-0.5,0.9-1.1,1.3-1.3c-0.1-0.6,0.6-1.8,1.4-1.8c0.3-0.5,0.4-1.3,1.6-1c0.2-0.3,0.8-0.8,1.5-0.9c-0.5-1.2-0.5-2.4-0.3-3.2
		c-0.9-0.2-2-0.7-2.8-0.9c-1.7-0.5-3-0.1-4.9,0.2c-0.9,0.1-1.1-0.5-0.8-0.7c-0.2-0.4-0.1-0.6,0.2-0.7c-0.3-0.2-0.4-0.9,0-0.9
		c-0.3,0-0.2-0.9,0.3-0.8c-0.2-0.3,0-0.8,0.4-0.8c-0.2-0.2,0.4-1.2,1.2-0.9c1.4,0.5,3,1.1,4.1,1.1c1.6,0,1.7-0.1,2.5-0.1
		c0.1-0.2,0-1.5,0.2-2.4c-0.3-0.4-0.4-0.8-0.3-1.4c-0.6,0-1-0.8-0.7-1.4c-0.5-0.2-0.9-0.4-0.9-1.1c-0.6-0.7-0.7-0.7-0.4-1.6
		c-0.6-0.4-0.9-1.3-0.4-2.1c2,1,7.2,2.1,6.9,4.6c-0.2,1.4-0.3,4.5-0.1,5.8c1,0.1,5.4,2,3.9,3.3c0.8,0.9,0.8,1.6,0.6,2.2
		c-1.8-1.3-3.2-1.7-4.1-1.9C469.9,93.1,471.2,96.7,469.6,97.1L469.6,97.1z M296.4,122.8c-0.1-0.5-1.1-0.7-1.5-0.5c0-0.3-0.7-1-1.9,0
		c0.1-0.4-0.7-0.5-1,0c0-0.3-0.7-0.3-1.1,0.2c0-0.3-0.5-0.3-0.9,0.3c0-0.2-0.5-0.2-0.8,0.3c-0.1-0.2-0.3-0.2-0.5,0
		c-1.2-2.5-2.1-5.2-2.6-6.3c-0.4-0.9-1.1,0.5-1,0.9c-0.5,0.1-0.7,1.1-0.5,1.5c-0.3,0-1,0.6,0,1.9c-0.4-0.1-0.5,0.7-0.1,1
		c-0.3,0-0.3,0.7,0.2,1.1c-0.3,0-0.3,0.5,0.3,0.9c-0.2,0-0.2,0.5,0.3,0.8c-0.3,0.2,0.1,0.8,0.4,0.9c-1.2,0.5-1.9,0.6-3.4,0.6
		c-0.4,0-0.5,0.2-0.3,0.4c-0.5,0-0.5,0.2-0.4,0.4c-0.5,0-0.9,0.6-0.3,0.8c-0.7,1,2.6,0.1,3.4,0.1c1.3-0.1,2.4,0.2,3.5,0.4
		c1.6,0.2,3.3-0.4,4.5-0.3c0.5,0.1,0.9,0.2,1.5,0.6c0.1-0.2,0.1-0.6-0.6-1.2c-0.1-1.4-1.8-1.4-2.3-1.4c2.4-1.2,4.9-2.1,6-2.6
		C298.2,123.4,296.8,122.7,296.4,122.8L296.4,122.8z M372.1,185.6c0.1-0.9-1.5-1.4-2.3-1.2c0.1-0.5-0.8-1.7-2.9-0.4
		c0.2-0.5-1-0.9-1.6-0.4c0.1-0.5-1.1-0.6-1.7,0c0.1-0.5-0.8-0.5-1.4,0.2c0-0.4-0.7-0.5-1.3,0.2c-0.1-0.3-0.5-0.3-0.8-0.1
		c-1.2-4.2-1.9-8.6-2.4-10.5c-0.3-1.4-1.8,0.5-1.8,1.2c-0.9-0.1-1.4,1.5-1.2,2.3c-0.5-0.1-1.7,0.7-0.5,2.9c-0.5-0.2-1,1-0.4,1.6
		c-0.5-0.1-0.6,1.1,0,1.7c-0.5-0.1-0.6,0.8,0.2,1.4c-0.4,0-0.5,0.7,0.2,1.3c-0.5,0.2-0.1,1.3,0.4,1.5c-2,0.4-3.2,0.4-5.5,0
		c-0.6-0.1-0.9,0.1-0.5,0.6c-0.7-0.1-0.9,0.2-0.7,0.5c-0.8-0.1-1.5,0.7-0.7,1.2c-1.4,1.4,4,0.8,5.3,1.1c2.1,0.2,3.6,1,5.3,1.5
		c2.4,0.7,5.2,0.3,7,0.8c0.7,0.3,1.4,0.5,2.2,1.3c0.3-0.3,0.4-0.9-0.7-2c0.1-2.2-2.5-2.7-3.2-2.7c4-1.2,8.2-1.9,10.1-2.3
		C374.8,187.1,372.8,185.6,372.1,185.6L372.1,185.6z M288.8,50.6c-0.1-0.6-1.4-0.7-1.9-0.4c0-0.4-0.9-1.1-2.2,0.3
		c0-0.4-0.9-0.5-1.2,0.1c-0.1-0.4-0.9-0.2-1.2,0.4c-0.1-0.4-0.7-0.2-1,0.4c-0.1-0.3-0.6-0.2-0.9,0.4c-0.2-0.2-0.4-0.1-0.6,0.1
		c-1.8-2.8-3.2-5.9-3.9-7.3c-0.5-1-1.2,0.8-1.1,1.2c-0.7,0.1-0.7,1.4-0.4,1.9c-0.4,0-1.1,0.9,0.3,2.2c-0.4,0-0.5,0.9,0.1,1.2
		c-0.4,0.1-0.2,0.9,0.4,1.2c-0.4,0-0.2,0.7,0.4,1c-0.3,0.1-0.2,0.6,0.4,0.9c-0.3,0.2,0.2,1,0.6,1.1c-1.4,0.7-2.3,1-4.1,1.2
		c-0.4,0-0.6,0.3-0.2,0.6c-0.5,0.1-0.6,0.4-0.4,0.6c-0.6,0.1-1,0.8-0.2,1c-0.8,1.3,3.1-0.2,4.1-0.3c1.6-0.3,2.9,0,4.2,0
		c2,0,3.9-0.9,5.3-0.8c0.6,0.1,1.1,0.1,1.9,0.5c0.1-0.3,0.1-0.7-0.9-1.3c-0.3-1.6-2.4-1.4-2.9-1.3c2.7-1.7,5.7-3.1,6.9-3.8
		C291.1,51.2,289.3,50.5,288.8,50.6L288.8,50.6z M316.4,19.2c1.4,1.4,4,4.3,5.3,7c-0.4,2.7-0.2,4.2,0.6,5.7c0,0,1.7,0.5,2.4,1.2
		c0.6,0.7,0.2,1.5-0.1,2.2c0,1-0.8,1.1-0.8,1.1c0-0.6-0.3-1.3-0.9-1.4c-0.2,1.7-0.2,3.2,1,5.8c-0.5,3-2.3,6.8-3.5,8.2
		c-0.4-0.2-0.7-0.8-0.7-1.1c-0.5-0.3-0.6-1.5-0.3-2c-0.2-0.5-0.1-1.4,0.1-1.8c-0.2-0.4-0.3-1.3,0.1-1.7c-0.1-0.1-0.5-1,0.2-1.7
		c-0.4-0.5-0.8-3.5-0.8-4.8c-0.7-0.1-1.2-0.5-1.9-0.7c-1.3-0.3-2.3,0.1-3.6,0.5c-0.6,0.2-0.9-0.4-0.7-0.6c-0.3-0.3-0.3-0.6-0.2-0.7
		c-0.2-0.2-0.3-0.6,0-0.7c-0.2,0-0.3-0.7,0.1-0.7c-0.2-0.3,0-0.7,0.2-0.7c-0.2-0.2,0-1.1,0.6-0.9c1.1,0.4,2.1,0.7,2.9,0.6
		c1.1-0.1,1.4-0.1,2-0.2c0-0.4-0.9-4.3-0.4-4.5c-0.5-0.4-0.8-1.1-0.6-1.8c-0.5-0.2-0.7-1.1-0.5-1.5c-0.4-0.3-0.8-1-0.6-1.6
		c-0.4-0.7-0.6-1.5-0.3-2.1C315.7,19.8,316,19.5,316.4,19.2L316.4,19.2z M307.4,55.4c1.7,1.5,4.8,4.7,6.3,7.8
		c-0.3,3.1-0.1,4.8,0.9,6.5c0,0,2,0.5,2.7,1.3c0.7,0.7,0.3,1.7-0.1,2.6c0.1,1.1-0.8,1.3-0.9,1.3c-0.1-0.7-0.4-1.5-1.1-1.6
		c-0.1,2-0.1,3.6,1.3,6.5c-0.5,3.4-2.3,7.9-3.7,9.5c-0.5-0.2-0.8-0.9-0.8-1.2c-0.5-0.3-0.8-1.6-0.4-2.3c-0.3-0.6-0.2-1.6,0.1-2
		c-0.2-0.4-0.4-1.4,0.1-2c-0.2-0.1-0.6-1.1,0.1-1.9c-0.5-0.5-1-3.9-1.1-5.4c-0.8-0.1-1.4-0.5-2.2-0.7c-1.5-0.3-2.6,0.3-4,0.8
		c-0.7,0.2-1-0.4-0.9-0.7c-0.3-0.3-0.4-0.6-0.3-0.8c-0.3-0.2-0.3-0.7,0-0.8c-0.2,0-0.3-0.8,0.1-0.8c-0.3-0.3-0.1-0.8,0.2-0.9
		c-0.3-0.2-0.1-1.2,0.6-1c1.3,0.4,2.5,0.7,3.3,0.6c1.3-0.2,1.6-0.2,2.3-0.3c-0.1-0.5-1.2-4.9-0.6-5.1c-0.6-0.5-1-1.3-0.8-2
		c-0.6-0.2-0.8-1.2-0.6-1.7c-0.5-0.4-1-1.2-0.8-1.8c-0.5-0.8-0.8-1.7-0.4-2.4C306.6,56.2,306.9,55.8,307.4,55.4L307.4,55.4z
		 M299.7,18.7c-3.1,1.2-6.7,2.7-8.8,2.8c-0.3-0.5,0.7-1.2,1-1.4c-0.2-0.5,0.2-1.7,1-1.9c0.2-0.5,0.2-1.2,1.3-1.2
		c0.1-0.3,0.7-0.8,1.2-1c-0.6-1-0.8-2.1-0.8-2.9c-0.8-0.1-1.9-0.3-2.7-0.4c-1.6-0.2-2.8,0.4-4.5,0.9c-0.8,0.3-1-0.3-0.8-0.6
		c-0.2-0.3-0.2-0.5,0.1-0.7c-0.3-0.2-0.5-0.7-0.1-0.9c-0.2,0-0.3-0.8,0.2-0.8c-0.2-0.3-0.1-0.8,0.2-0.8c-0.2-0.2,0.2-1.2,1-1
		c1.3,0.3,2.9,0.6,3.9,0.4c1.5-0.3,1.5-0.4,2.3-0.5c0-0.2-0.2-1.4-0.2-2.3c-0.3-0.3-0.5-0.7-0.4-1.2c-0.6,0.1-1-0.6-0.9-1.1
		c-0.5-0.1-0.9-0.2-1-0.9c-0.6-0.5-0.8-0.6-0.6-1.4c-0.6-0.3-1-1.1-0.7-1.8c2,0.6,6.9,0.8,7,3.2c0,1.3,0.4,4.2,0.8,5.3
		c0.9-0.1,5.2,1,4.1,2.5c0.9,0.7,1,1.4,0.9,2c-1.8-0.9-3.2-1.1-4-1.1C299.4,15,301.1,18.1,299.7,18.7L299.7,18.7z M298.1,149.4
		c-3,1.1-6.6,2.5-8.6,2.5c-0.3-0.5,0.7-1.1,1-1.3c-0.2-0.5,0.3-1.7,1.1-1.8c0.2-0.5,0.2-1.2,1.3-1.1c0.1-0.3,0.7-0.8,1.2-1
		c-0.5-1-0.7-2.1-0.7-2.8c-0.8-0.1-1.8-0.3-2.6-0.5c-1.5-0.2-2.7,0.3-4.4,0.8c-0.8,0.2-1-0.3-0.8-0.6c-0.2-0.3-0.1-0.5,0.1-0.7
		c-0.3-0.2-0.5-0.7-0.1-0.8c-0.2,0-0.3-0.7,0.2-0.8c-0.2-0.3-0.1-0.7,0.2-0.8c-0.2-0.2,0.2-1.1,1-1c1.3,0.3,2.8,0.6,3.8,0.5
		c1.4-0.2,1.5-0.3,2.2-0.4c0-0.2-0.2-1.4-0.1-2.2c-0.3-0.3-0.5-0.7-0.4-1.2c-0.6,0.1-1-0.6-0.8-1.1c-0.5-0.1-0.9-0.2-0.9-0.9
		c-0.6-0.5-0.8-0.6-0.5-1.4c-0.6-0.3-1-1-0.7-1.8c1.9,0.7,6.7,1,6.7,3.2c0,1.3,0.3,4.1,0.7,5.2c0.9-0.1,5,1.1,3.9,2.5
		c0.9,0.7,0.9,1.3,0.8,1.9c-1.8-0.9-3.1-1.1-3.9-1.2C297.9,145.8,299.5,148.9,298.1,149.4L298.1,149.4z M363,160.7
		c-0.2-0.9-1.9-1-2.8-0.6c0-0.6-1.3-1.6-3.2,0.4c0.1-0.6-1.3-0.7-1.8,0.1c-0.1-0.6-1.3-0.4-1.8,0.5c-0.1-0.5-1-0.4-1.5,0.6
		c-0.1-0.4-0.8-0.3-1.3,0.6c-0.2-0.3-0.6-0.2-0.9,0.1c-2.5-4.1-4.5-8.6-5.5-10.5c-0.8-1.4-1.8,1.1-1.6,1.8c-0.9,0.2-1.1,1.9-0.6,2.7
		c-0.6,0-1.6,1.3,0.3,3.2c-0.6-0.1-0.7,1.3,0.1,1.8c-0.6,0.1-0.4,1.3,0.5,1.8c-0.5,0.1-0.4,1,0.6,1.5c-0.4,0.1-0.3,0.8,0.6,1.3
		c-0.5,0.3,0.3,1.4,0.8,1.5c-2,1-3.3,1.4-5.9,1.6c-0.6,0-0.9,0.4-0.4,0.8c-0.8,0.1-0.9,0.5-0.6,0.8c-0.9,0.2-1.4,1.1-0.4,1.4
		c-1.1,1.9,4.4-0.3,5.9-0.4c2.2-0.4,4.1,0,6.1,0.1c2.8,0.1,5.6-1.2,7.7-1.1c0.8,0.1,1.6,0.2,2.8,0.7c0.2-0.4,0.2-1-1.3-1.9
		c-0.5-2.3-3.4-2.1-4.2-2c3.9-2.4,8.2-4.3,10.1-5.4C366.2,161.5,363.7,160.5,363,160.7L363,160.7z M361.9,117.6
		c-2.6-3.9-4.5-7.8-5.6-9.5c-0.9-1.4-1.8,1.2-1.5,1.9c-1,0.2-1,2.1-0.5,2.9c-0.6,0-1.5,1.4,0.5,3.3c-0.7,0-0.7,1.4,0.2,1.8
		c-0.6,0.1-0.3,1.4,0.6,1.8c-0.5,0.1-0.3,1,0.7,1.5c-0.4,0.1-0.3,0.9,0.7,1.4c-0.5,0.3,0.4,1.4,1,1.5c-2,1.2-3.3,1.6-6,2
		c-0.6,0.1-0.9,0.4-0.3,0.9c-0.8,0.1-0.9,0.6-0.6,0.8c-0.9,0.2-1.4,1.3-0.3,1.5c-1.1,2.1,4.6-0.5,6.1-0.7c2.3-0.5,4.3-0.2,6.3-0.2
		c2.9-0.1,5.7-1.6,7.9-1.6c0.9,0,1.7,0.1,2.9,0.6c0.2-0.4,0.1-1.1-1.4-1.9c-0.6-2.5-3.6-1.9-5.5-1.8c-0.5-3.1-0.5-7.4,0.2-11.1
		c0.4-2.7-1.9-0.5-2.1,0.2c-0.9-0.3-1.8,1.2-1.8,2.1C362.8,114.7,361.5,115.3,361.9,117.6L361.9,117.6z M362.3,131.3
		c1.8,1.4,5.2,4.5,6.8,7.6c-0.5,3.2-0.3,5,0.7,6.7c0,0,2.2,0.4,3,1.1c0.8,0.7,0.3,1.7-0.2,2.7c0.1,1.2-1,1.4-1,1.4
		c-0.1-0.7-0.3-1.5-1.1-1.5c-0.2,2.1-0.3,3.8,1.2,6.6c-0.7,3.6-2.9,8.3-4.5,10.1c-0.6-0.2-0.9-0.9-0.8-1.2c-0.6-0.3-0.8-1.6-0.4-2.3
		c-0.3-0.6-0.2-1.6,0.2-2.1c-0.2-0.4-0.4-1.4,0.2-2.1c-0.2-0.1-0.6-1.1,0.2-2c-0.5-0.5-1-4-1-5.5c-0.9-0.1-1.5-0.4-2.4-0.5
		c-1.7-0.2-3,0.5-4.5,1.1c-0.8,0.3-1.1-0.3-1-0.6c-0.3-0.3-0.4-0.6-0.2-0.8c-0.3-0.2-0.3-0.7,0-0.8c-0.2,0-0.3-0.8,0.1-0.9
		c-0.3-0.3,0-0.8,0.2-0.9c-0.3-0.2-0.1-1.3,0.7-1.1c1.4,0.3,2.7,0.6,3.6,0.4c1.4-0.3,1.8-0.4,2.6-0.5c-0.1-0.5-1.2-4.9-0.5-5.3
		c-0.6-0.5-1-1.2-0.8-2c-0.6-0.1-0.9-1.2-0.6-1.7c-0.5-0.4-1.1-1.1-0.8-1.8c-0.6-0.8-0.8-1.7-0.4-2.4
		C361.4,132.2,361.8,131.7,362.3,131.3L362.3,131.3z M407,106.3c-0.1-0.7-1.4-0.8-2-0.5c0-0.5-0.9-1.2-2.4,0.2c0.1-0.5-1-0.6-1.3,0
		c0-0.4-1-0.3-1.4,0.3c0-0.4-0.7-0.3-1.1,0.4c-0.1-0.3-0.6-0.3-1,0.4c-0.2-0.3-0.4-0.2-0.7,0c-1.8-3.1-3.1-6.6-3.8-8
		c-0.5-1.1-1.4,0.7-1.2,1.3c-0.7,0.1-0.9,1.4-0.5,2c-0.5,0-1.2,0.9,0.1,2.4c-0.5-0.1-0.6,0.9,0,1.3c-0.4,0-0.3,1,0.3,1.4
		c-0.4,0-0.3,0.7,0.4,1.1c-0.3,0.1-0.3,0.6,0.4,1c-0.4,0.2,0.2,1,0.6,1.2c-1.5,0.7-2.5,0.9-4.4,1c-0.5,0-0.7,0.3-0.3,0.6
		c-0.6,0-0.7,0.4-0.5,0.6c-0.7,0.1-1.1,0.8-0.3,1c-0.9,1.4,3.3-0.1,4.4-0.1c1.7-0.2,3.1,0.2,4.5,0.3c2.1,0.2,4.2-0.7,5.8-0.6
		c0.6,0.1,1.2,0.2,2,0.6c0.2-0.3,0.2-0.8-0.9-1.5c-0.3-1.8-2.5-1.7-3.1-1.6c3-1.7,6.3-3,7.7-3.7C409.4,106.9,407.6,106.1,407,106.3
		L407,106.3z M359.9,89.4c-0.2-0.8-1.8-0.9-2.5-0.4c0-0.5-1.2-1.4-2.9,0.4c0-0.6-1.2-0.6-1.6,0.1c-0.1-0.5-1.2-0.3-1.6,0.5
		c-0.1-0.5-0.9-0.3-1.3,0.6c-0.1-0.4-0.8-0.3-1.2,0.6c-0.2-0.3-0.6-0.2-0.8,0.1c-2.4-3.6-4.4-7.7-5.4-9.4c-0.7-1.3-1.6,1-1.4,1.7
		c-0.8,0.2-0.9,1.8-0.5,2.5c-0.6,0-1.4,1.2,0.4,2.9c-0.6,0-0.6,1.2,0.1,1.6c-0.5,0.1-0.3,1.2,0.5,1.6c-0.5,0.1-0.3,0.9,0.6,1.3
		c-0.4,0.1-0.3,0.8,0.6,1.2c-0.4,0.3,0.3,1.2,0.8,1.4c-1.8,1-2.9,1.4-5.3,1.6c-0.6,0.1-0.8,0.4-0.3,0.8c-0.7,0.1-0.8,0.5-0.5,0.7
		c-0.8,0.2-1.2,1.1-0.3,1.3c-1,1.8,4-0.4,5.4-0.5c2-0.4,3.7-0.1,5.5-0.1c2.6,0,5-1.3,7-1.3c0.8,0.1,1.5,0.1,2.5,0.6
		c0.2-0.3,0.1-0.9-1.2-1.7c-0.5-2.1-3.2-1.8-3.9-1.7c3.5-2.3,7.3-4.2,9-5.2C362.8,90,360.5,89.2,359.9,89.4L359.9,89.4z M355.4,66.2
		c-1.8-3.8-2.9-7.3-3.6-9c-0.6-1.4-1.7,0.8-1.6,1.5c-0.9,0.1-1.1,1.7-0.8,2.4c-0.5-0.1-1.5,1,0,2.9c-0.6-0.1-0.8,1.1-0.1,1.6
		c-0.5,0-0.4,1.2,0.3,1.7c-0.5,0-0.4,0.8,0.4,1.4c-0.4,0.1-0.4,0.7,0.4,1.3c-0.5,0.2,0.1,1.3,0.6,1.5c-1.9,0.8-3.1,1-5.5,0.9
		c-0.6,0-0.8,0.3-0.4,0.7c-0.7,0-0.8,0.4-0.6,0.7c-0.8,0.1-1.4,0.9-0.5,1.3c-1.2,1.7,4,0.1,5.4,0.2c2.1-0.1,3.7,0.4,5.5,0.6
		c2.5,0.3,5.2-0.6,7.1-0.4c0.7,0.1,1.5,0.3,2.4,0.9c0.2-0.3,0.2-0.9-1-1.8c-0.2-2.2-2.9-2.1-4.5-2.2c0-2.8,0.6-6.5,1.6-9.6
		c0.7-2.3-1.6-0.7-1.9-0.1c-0.8-0.4-1.8,0.8-1.9,1.6C356.5,63.8,355.3,64.1,355.4,66.2L355.4,66.2z M386,32.4
		c-1.4-3.5-2.3-6.8-2.9-8.4c-0.5-1.3-1.6,0.7-1.5,1.3c-0.8,0-1.1,1.5-0.8,2.2c-0.5-0.1-1.4,0.8-0.1,2.7c-0.5-0.1-0.8,1-0.2,1.5
		c-0.5,0-0.5,1,0.2,1.5c-0.4,0-0.4,0.8,0.3,1.3c-0.4,0-0.4,0.6,0.3,1.2c-0.4,0.2,0.1,1.2,0.5,1.4c-1.8,0.6-2.8,0.7-5,0.6
		c-0.5,0-0.8,0.2-0.4,0.6c-0.7,0-0.8,0.3-0.6,0.6c-0.7,0-1.3,0.8-0.5,1.1c-1.2,1.4,3.7,0.3,4.9,0.4c1.9,0,3.4,0.5,4.9,0.8
		c2.3,0.4,4.7-0.3,6.4,0c0.7,0.2,1.3,0.3,2.2,0.9c0.2-0.3,0.3-0.8-0.8-1.7c-0.1-2-2.5-2.1-4-2.2c0.1-2.5,0.8-5.9,1.8-8.7
		c0.8-2.1-1.5-0.7-1.7-0.2c-0.7-0.4-1.6,0.6-1.8,1.4C387.1,30.3,386,30.5,386,32.4L386,32.4z M397.3,58.7c-0.1-0.7-1.4-0.9-2-0.6
		c0-0.5-0.9-1.2-2.5,0.1c0.1-0.5-0.9-0.6-1.3-0.1c0-0.4-1-0.3-1.4,0.3c0-0.4-0.7-0.3-1.2,0.4c-0.1-0.3-0.6-0.3-1,0.4
		c-0.1-0.3-0.4-0.2-0.7,0c-1.7-3.2-2.9-6.8-3.6-8.3c-0.5-1.1-1.4,0.7-1.3,1.3c-0.7,0.1-0.9,1.4-0.6,2c-0.5,0-1.3,0.9,0.1,2.5
		c-0.5-0.1-0.6,0.9-0.1,1.3c-0.4,0-0.4,1,0.3,1.4c-0.4,0-0.3,0.7,0.4,1.2c-0.3,0.1-0.3,0.6,0.4,1.1c-0.4,0.2,0.1,1.1,0.5,1.2
		c-1.6,0.7-2.6,0.9-4.5,0.9c-0.5,0-0.7,0.2-0.3,0.6c-0.6,0-0.7,0.3-0.5,0.6c-0.7,0.1-1.1,0.8-0.4,1c-1,1.4,3.4,0.1,4.5,0.1
		c1.7-0.1,3.1,0.3,4.6,0.4c2.1,0.2,4.3-0.6,5.9-0.4c0.6,0.1,1.2,0.2,2,0.7c0.2-0.3,0.2-0.8-0.9-1.5c-0.2-1.8-2.5-1.8-3.1-1.8
		c3.1-1.6,6.5-2.8,7.9-3.5C399.7,59.5,397.8,58.6,397.3,58.7L397.3,58.7z M401.7,52.3c1.3,1.7,3.6,5.4,4.5,8.6
		c-0.9,2.9-1,4.5-0.4,6.3c0,0,1.8,0.9,2.4,1.7c0.5,0.8,0,1.6-0.5,2.4c-0.1,1.1-1,1.1-1.1,1.1c0-0.6-0.1-1.5-0.7-1.7
		c-0.5,1.9-0.8,3.4,0,6.4c-1.1,3.2-3.7,7-5.3,8.3c-0.4-0.3-0.6-1-0.5-1.3c-0.4-0.4-0.4-1.7,0-2.2c-0.2-0.6,0.1-1.5,0.5-1.9
		c-0.1-0.4-0.1-1.4,0.4-1.9c-0.1-0.1-0.3-1.2,0.5-1.8c-0.3-0.6-0.2-3.9,0-5.4c-0.7-0.3-1.2-0.7-1.9-1c-1.4-0.6-2.5-0.2-4,0
		c-0.7,0.1-0.9-0.6-0.7-0.8c-0.2-0.4-0.3-0.7-0.1-0.8c-0.2-0.2-0.2-0.7,0.1-0.8c-0.2-0.1-0.2-0.8,0.2-0.8c-0.2-0.3,0.1-0.8,0.3-0.8
		c-0.2-0.3,0.1-1.2,0.8-0.8c1.1,0.6,2.2,1.2,3,1.2c1.3,0.1,1.6,0.1,2.2,0.1c0-0.5-0.2-4.9,0.4-5c-0.4-0.6-0.7-1.4-0.4-2
		c-0.5-0.3-0.6-1.3-0.2-1.7c-0.4-0.4-0.7-1.3-0.4-1.9c-0.4-0.9-0.4-1.7,0-2.3C400.8,52.9,401.2,52.5,401.7,52.3L401.7,52.3z
		 M409.6,163.9c-0.2-1-2.1-1-2.9-0.5c0-0.6-1.4-1.6-3.3,0.5c0-0.7-1.4-0.7-1.8,0.1c-0.1-0.6-1.4-0.3-1.9,0.6c-0.1-0.5-1-0.3-1.5,0.7
		c-0.1-0.4-0.9-0.3-1.4,0.7c-0.2-0.3-0.6-0.2-0.9,0.1c-2.7-4.2-5-8.8-6.1-10.8c-0.8-1.5-1.8,1.2-1.6,1.9c-1,0.2-1,2.1-0.5,2.9
		c-0.6,0-1.6,1.4,0.4,3.3c-0.7-0.1-0.7,1.4,0.1,1.8c-0.6,0.1-0.3,1.4,0.6,1.9c-0.5,0.1-0.4,1,0.7,1.5c-0.4,0.1-0.3,0.9,0.7,1.4
		c-0.5,0.3,0.3,1.4,0.9,1.6c-2,1.1-3.4,1.5-6.1,1.8c-0.6,0.1-0.9,0.4-0.4,0.9c-0.8,0.1-0.9,0.6-0.6,0.8c-0.9,0.2-1.4,1.2-0.3,1.5
		c-1.1,2,4.6-0.4,6.1-0.5c2.3-0.4,4.3-0.1,6.3-0.1c2.9,0,5.8-1.4,8-1.4c0.9,0.1,1.7,0.1,2.9,0.7c0.2-0.4,0.1-1.1-1.4-1.9
		c-0.6-2.4-3.6-2.1-4.5-1.9c4-2.6,8.4-4.8,10.3-5.9C413,164.6,410.3,163.6,409.6,163.9L409.6,163.9z M419.4,73.9
		c1.9,1.6,5.3,5.1,7,8.5c-0.3,3.4-0.1,5.3,1,7.1c0,0,2.2,0.5,3,1.4c0.8,0.8,0.4,1.8,0,2.8c0.1,1.2-0.9,1.4-0.9,1.4
		c-0.1-0.7-0.4-1.6-1.2-1.7c-0.1,2.2-0.1,4,1.5,7.1c-0.5,3.7-2.5,8.6-3.9,10.4c-0.6-0.2-0.9-1-0.9-1.3c-0.6-0.4-0.9-1.8-0.5-2.5
		c-0.3-0.6-0.2-1.7,0.1-2.2c-0.3-0.5-0.4-1.5,0.1-2.2c-0.2-0.1-0.6-1.2,0.1-2.1c-0.5-0.6-1.2-4.3-1.2-5.9c-0.9-0.1-1.5-0.5-2.4-0.7
		c-1.6-0.3-2.9,0.3-4.4,0.9c-0.7,0.3-1.1-0.4-1-0.7c-0.3-0.4-0.5-0.7-0.3-0.9c-0.3-0.2-0.4-0.8,0-0.9c-0.2,0-0.4-0.9,0.1-0.9
		c-0.3-0.3-0.1-0.9,0.2-0.9c-0.3-0.2-0.1-1.3,0.7-1.1c1.4,0.4,2.7,0.8,3.6,0.6c1.4-0.2,1.8-0.3,2.5-0.4c-0.1-0.5-1.4-5.3-0.7-5.6
		c-0.6-0.5-1.1-1.4-0.9-2.2c-0.6-0.2-0.9-1.3-0.7-1.8c-0.5-0.4-1.1-1.3-0.9-2c-0.6-0.9-0.9-1.8-0.5-2.6
		C418.5,74.8,418.9,74.3,419.4,73.9L419.4,73.9z M441.2,79.8c-1.9-3.7-3.2-7.2-4-8.9c-0.6-1.3-1.7,0.9-1.5,1.5
		c-0.9,0.1-1.1,1.7-0.7,2.5c-0.5,0-1.5,1.1,0.1,2.9c-0.6-0.1-0.7,1.1,0,1.6c-0.5,0-0.4,1.2,0.4,1.7c-0.5,0-0.4,0.9,0.5,1.4
		c-0.4,0.1-0.3,0.7,0.5,1.2c-0.4,0.3,0.2,1.3,0.7,1.4c-1.9,0.8-3,1.1-5.4,1.1c-0.6,0-0.8,0.3-0.4,0.7c-0.7,0-0.8,0.4-0.6,0.7
		c-0.8,0.1-1.3,1-0.4,1.3c-1.1,1.7,4,0,5.4,0c2.1-0.2,3.7,0.2,5.5,0.4c2.5,0.2,5.1-0.8,7-0.6c0.7,0.1,1.5,0.2,2.5,0.8
		c0.2-0.3,0.2-0.9-1.1-1.8c-0.3-2.2-3-2-4.6-2.1c-0.1-2.8,0.3-6.5,1.2-9.7c0.6-2.3-1.7-0.6-1.9,0c-0.8-0.3-1.7,0.9-1.8,1.7
		C442.2,77.4,441,77.8,441.2,79.8L441.2,79.8z M483.1,127.8c-0.1-0.9-1.7-1.2-2.5-0.9c0.1-0.6-1-1.6-3.1,0c0.1-0.6-1.2-0.8-1.7-0.1
		c0-0.6-1.2-0.5-1.8,0.3c0-0.5-0.9-0.5-1.5,0.4c-0.1-0.4-0.8-0.4-1.3,0.4c-0.2-0.3-0.6-0.3-0.8,0c-1.9-4.2-3.3-8.7-4-10.6
		c-0.6-1.4-1.8,0.8-1.7,1.5c-0.9,0.1-1.2,1.7-0.9,2.5c-0.6-0.1-1.6,1-0.1,3.1c-0.6-0.1-0.9,1.1-0.2,1.7c-0.6,0-0.5,1.2,0.3,1.8
		c-0.5,0-0.5,0.9,0.4,1.5c-0.4,0.1-0.4,0.8,0.4,1.3c-0.5,0.2,0.1,1.3,0.6,1.5c-2,0.7-3.3,0.9-5.8,0.8c-0.6,0-0.9,0.3-0.4,0.7
		c-0.8,0-0.9,0.4-0.7,0.7c-0.9,0-1.5,0.9-0.5,1.3c-1.3,1.7,4.2,0.3,5.6,0.4c2.2-0.1,3.9,0.5,5.7,0.8c2.7,0.4,5.4-0.5,7.4-0.2
		c0.8,0.2,1.5,0.4,2.5,1c0.2-0.3,0.3-1-1-1.9c-0.2-2.3-3-2.4-3.8-2.4c4-1.8,8.3-3.2,10.2-3.9C486.1,128.9,483.8,127.7,483.1,127.8
		L483.1,127.8z M297,99.6c-2.7,1.2-6,2.5-7.8,2.6c-0.3-0.4,0.6-1.1,0.8-1.2c-0.2-0.5,0.2-1.6,0.9-1.7c0.2-0.5,0.2-1.1,1.2-1.1
		c0.1-0.3,0.6-0.8,1.1-1c-0.5-0.9-0.7-1.9-0.7-2.6c-0.8-0.1-1.7-0.3-2.5-0.3c-1.4-0.2-2.5,0.4-4,0.9c-0.7,0.3-0.9-0.3-0.7-0.5
		c-0.2-0.3-0.2-0.4,0-0.6c-0.2-0.2-0.5-0.6-0.1-0.8c-0.2,0-0.3-0.7,0.1-0.7c-0.2-0.2-0.1-0.7,0.2-0.7c-0.2-0.2,0.2-1.1,0.9-0.9
		c1.2,0.2,2.7,0.5,3.5,0.3c1.3-0.3,1.4-0.3,2-0.5c0-0.2-0.2-1.2-0.2-2c-0.3-0.2-0.5-0.6-0.4-1.1c-0.5,0.1-0.9-0.5-0.8-1
		c-0.5-0.1-0.8-0.2-0.9-0.8c-0.6-0.4-0.7-0.5-0.5-1.3c-0.5-0.3-0.9-0.9-0.7-1.6c1.8,0.5,6.2,0.6,6.3,2.7c0.1,1.2,0.4,3.7,0.8,4.8
		c0.8-0.1,4.7,0.8,3.7,2.1c0.8,0.6,0.9,1.2,0.8,1.8c-1.7-0.8-2.9-0.9-3.6-0.9C296.7,96.2,298.3,99,297,99.6L297,99.6z"/>
</g>
</svg>
